<svg xmlns="http://www.w3.org/2000/svg" xmlns:xlink="http://www.w3.org/1999/xlink" width="1324" height="658" viewBox="0 0 1324 658">
    <defs>
        <path id="a" d="M0 90.517h58.757V.815H0v89.702z"/>
        <path id="c" d="M0 90.517h58.757V.815H0v89.702z"/>
        <path id="e" d="M0 90.517h58.757V.815H0v89.702z"/>
        <path id="g" d="M0 90.517h58.757V.815H0v89.702z"/>
        <path id="i" d="M0 90.517h58.757V.815H0v89.702z"/>
        <path id="k" d="M0 90.517h58.757V.815H0v89.702z"/>
        <path id="m" d="M0 54.033h81.727V.671H0z"/>
        <path id="o" d="M.44 0h79.317v33.406H.441V0z"/>
        <path id="q" d="M0 54.033h81.727V.671H0z"/>
        <path id="s" d="M.44 0h79.317v33.406H.441V0z"/>
        <path id="u" d="M0 54.033h81.727V.671H0z"/>
        <path id="w" d="M.44 0h79.317v33.406H.441V0z"/>
        <path id="y" d="M0 54.033h81.727V.671H0z"/>
        <path id="A" d="M.44 0h79.317v33.406H.441V0z"/>
        <path id="C" d="M0 91.69h84.934V0H0z"/>
        <path id="E" d="M0 91.69h84.934V0H0z"/>
        <path id="G" d="M0 91.69h84.934V0H0z"/>
        <path id="I" d="M.32 0h34.867v16.284H.32V0z"/>
        <path id="K" d="M.326 34.371h89.925V.573H.326z"/>
        <path id="M" d="M0 41.366V.401h93.637v40.965H0z"/>
        <path id="O" d="M.32 0h34.867v16.284H.32V0z"/>
        <path id="Q" d="M.326 34.371h89.925V.573H.326z"/>
        <path id="S" d="M0 41.366V.401h93.637v40.965H0z"/>
        <path id="U" d="M0 0h31.015v90.313H0V0z"/>
        <path id="W" d="M48.348 88.968V0H0v88.968h48.348z"/>
        <path id="Y" d="M48.348 88.968V0H0v88.968h48.348z"/>
        <path id="aa" d="M48.348 88.968V0H0v88.968h48.348z"/>
        <path id="ac" d="M48.348 88.968V0H0v88.968h48.348z"/>
        <path id="ae" d="M48.348 88.968V0H0v88.968h48.348z"/>
        <path id="ag" d="M.255 25.547h76.092V.084H.255z"/>
        <path id="ai" d="M.255 25.547h76.092V.084H.255z"/>
        <path id="ak" d="M.255 25.547h76.092V.084H.255z"/>
        <path id="am" d="M.255 25.547h76.092V.084H.255z"/>
    </defs>
    <g fill="none" fill-rule="evenodd">
        <path fill="#FFF" d="M757.273 289.932c-.866-.005-1.75.038-2.652.124-4.91-8.174-14.004-21.304-28.062-23.31-6.071-.865-13.06.336-21.043 4.922-10.38 5.962-14.94 13.341-16.265 20.828-2.054 11.595 3.672 23.434 7.727 30.672a25.39 25.39 0 0 0-1.476 2.299c-2.261-3.996-4.366-8.073-6.088-12.163-3.413-8.11-5.323-16.264-3.983-23.907 1.366-7.801 6.14-15.062 16.145-21.203.47-.29.929-.582 1.422-.865 26.483-15.213 42.383 2.468 54.362 22.605-.03.001-.058 0-.087-.002m7.638 3.106c-.031-.077-.061-.156-.105-.232-12.16-20.953-29.956-42.807-59.915-25.598-11.902 6.837-17.46 15.11-19.093 23.906-2.472 13.337 4.1 27.887 11.427 40.513.044.075.096.141.148.207-.386 1.13-.64 2.25-.773 3.346-.337 2.764.137 5.37 1.57 7.548l4.43 6.738c2.666 4.058 8.023 5.714 14.147 4.986a27.26 27.26 0 0 0 3.496-.659 31.067 31.067 0 0 0 2.312-.679c-.725.246-1.435.419-2.156.611L701.44 324.7c.23-.294.47-.582.713-.87.368-.43.738-.858 1.143-1.273.145-.158.268-.266.403-.403l19.966 30.554c-.347.133-.688.261-1.109.407 1.795-.61 2.845-1.1 3.81-1.61.326-.173.64-.348.971-.53 1.312-.723.76-3.784-1.22-6.8l-13.655-20.768c-1.979-3.014-4.494-4.814-5.587-3.994-.56.421-1.071.803-1.655 1.303-4.298-8.158-7.224-16.27-6.13-23.672.934-6.318 4.793-12.119 13.26-16.983 18.395-10.566 29.782-.247 38.96 14.179-.725.253-1.315.503-1.963.776-.442.187-.688.692-.753 1.402-.066.729.059 1.675.367 2.732.246.843.602 1.753 1.072 2.675l11.25 22.15c1.634 3.215 4.022 5.22 5.307 4.451.268-.16.526-.315.784-.473.804-.491 1.61-1.03 2.707-1.931.24-.198.492-.409.763-.645-.338.29-.62.52-.909.753l-16.612-32.482c.187-.047.342-.1.553-.146.563-.14 1.122-.246 1.68-.348.37-.065.742-.127 1.112-.179l15.786 30.85c-.528.525-1.032 1.05-1.61 1.552 3.05-2.64 5.318-5.65 6.625-8.68 1.559-3.616 1.742-7.26.177-10.338l-3.65-7.186c-1.647-3.246-4.941-5.318-9.084-6.134M349.273 449.932c-.866-.005-1.75.038-2.652.124-4.91-8.174-14.004-21.304-28.062-23.31-6.071-.865-13.06.336-21.043 4.922-10.38 5.962-14.94 13.341-16.265 20.828-2.054 11.595 3.672 23.434 7.727 30.672a25.39 25.39 0 0 0-1.476 2.299c-2.261-3.996-4.366-8.073-6.088-12.163-3.413-8.11-5.323-16.264-3.983-23.907 1.366-7.801 6.14-15.062 16.145-21.203.47-.29.929-.582 1.422-.865 26.483-15.213 42.383 2.468 54.362 22.605-.03.001-.058 0-.087-.002m7.638 3.106c-.031-.077-.061-.156-.105-.232-12.16-20.953-29.956-42.807-59.915-25.598-11.902 6.837-17.46 15.11-19.093 23.906-2.472 13.337 4.1 27.887 11.427 40.513.044.075.096.141.148.207-.386 1.13-.64 2.25-.773 3.346-.337 2.764.137 5.37 1.57 7.548l4.43 6.738c2.666 4.058 8.023 5.714 14.147 4.986a27.26 27.26 0 0 0 3.496-.659 31.067 31.067 0 0 0 2.312-.679c-.725.246-1.435.419-2.156.611L293.44 484.7c.23-.294.47-.582.713-.87.368-.43.738-.858 1.143-1.273.145-.158.268-.266.403-.403l19.966 30.554c-.347.133-.688.261-1.109.407 1.795-.61 2.845-1.1 3.81-1.61.326-.173.64-.348.971-.53 1.312-.723.76-3.784-1.22-6.8l-13.655-20.768c-1.979-3.014-4.494-4.814-5.587-3.994-.56.421-1.071.803-1.655 1.303-4.298-8.158-7.224-16.27-6.13-23.672.934-6.318 4.793-12.119 13.26-16.983 18.395-10.566 29.782-.247 38.96 14.179-.725.253-1.315.503-1.963.776-.442.187-.688.692-.753 1.402-.066.729.059 1.675.367 2.732.246.843.602 1.753 1.072 2.675l11.25 22.15c1.634 3.215 4.022 5.22 5.307 4.451.268-.16.526-.315.784-.473.804-.491 1.61-1.03 2.707-1.931.24-.198.492-.409.763-.645-.338.29-.62.52-.909.753l-16.612-32.482c.187-.047.342-.1.553-.146.563-.14 1.122-.246 1.68-.348.37-.065.742-.127 1.112-.179l15.786 30.85c-.528.525-1.032 1.05-1.61 1.552 3.05-2.64 5.318-5.65 6.625-8.68 1.559-3.616 1.742-7.26.177-10.338l-3.65-7.186c-1.647-3.246-4.941-5.318-9.084-6.134M1302.407 219.932c-.866-.005-1.75.038-2.652.124-4.91-8.174-14.004-21.304-28.062-23.31-6.071-.865-13.06.336-21.043 4.922-10.38 5.962-14.94 13.341-16.264 20.828-2.055 11.595 3.671 23.434 7.726 30.672a25.388 25.388 0 0 0-1.476 2.299c-2.261-3.996-4.366-8.073-6.088-12.163-3.413-8.11-5.322-16.264-3.983-23.907 1.366-7.801 6.141-15.062 16.145-21.203.47-.29.929-.582 1.422-.865 26.483-15.213 42.383 2.468 54.362 22.605-.03.001-.058 0-.087-.002m7.638 3.106c-.031-.077-.061-.156-.105-.232-12.16-20.953-29.956-42.807-59.915-25.598-11.902 6.837-17.46 15.11-19.093 23.906-2.472 13.337 4.1 27.887 11.427 40.513.044.075.096.141.148.207-.386 1.13-.64 2.25-.773 3.346-.337 2.764.137 5.37 1.57 7.548l4.43 6.738c2.666 4.058 8.023 5.714 14.147 4.986a27.26 27.26 0 0 0 3.496-.659 31.066 31.066 0 0 0 2.312-.679c-.725.246-1.435.419-2.156.611l-18.96-29.026c.231-.294.47-.582.713-.87.368-.43.738-.858 1.143-1.273.145-.158.268-.266.403-.403l19.966 30.554c-.347.133-.688.261-1.109.407 1.795-.61 2.845-1.1 3.81-1.61.326-.173.64-.348.971-.53 1.312-.723.76-3.784-1.22-6.8l-13.655-20.768c-1.979-3.014-4.494-4.814-5.587-3.994-.56.421-1.071.803-1.655 1.303-4.298-8.158-7.224-16.27-6.13-23.672.934-6.318 4.793-12.119 13.26-16.983 18.395-10.566 29.782-.247 38.96 14.179-.725.253-1.315.503-1.963.776-.441.187-.688.692-.753 1.402-.066.729.059 1.675.367 2.732.246.843.602 1.753 1.072 2.675l11.25 22.15c1.634 3.215 4.022 5.22 5.307 4.451.268-.16.526-.315.784-.473.804-.491 1.61-1.03 2.707-1.931.24-.198.492-.409.763-.645-.337.29-.62.52-.909.753l-16.612-32.482c.187-.047.342-.1.553-.146.563-.14 1.122-.246 1.68-.348a33.41 33.41 0 0 1 1.112-.179l15.786 30.85c-.528.525-1.032 1.05-1.61 1.552 3.05-2.64 5.318-5.65 6.625-8.68 1.559-3.616 1.742-7.26.177-10.338l-3.65-7.186c-1.647-3.246-4.941-5.318-9.084-6.134M521.273 59.932c-.866-.005-1.75.038-2.652.124-4.91-8.174-14.004-21.304-28.062-23.31-6.071-.865-13.06.336-21.043 4.922-10.38 5.962-14.94 13.341-16.265 20.828-2.054 11.595 3.672 23.434 7.727 30.672a25.39 25.39 0 0 0-1.476 2.299c-2.261-3.996-4.366-8.073-6.088-12.163-3.413-8.11-5.323-16.264-3.983-23.907 1.366-7.801 6.14-15.062 16.145-21.203.47-.29.929-.582 1.422-.865 26.483-15.213 42.383 2.468 54.362 22.605-.03.001-.058 0-.087-.002m7.638 3.106c-.031-.077-.061-.156-.105-.232C516.646 41.853 498.85 20 468.89 37.208c-11.902 6.837-17.46 15.11-19.093 23.906-2.472 13.337 4.1 27.887 11.427 40.513.044.075.096.141.148.207-.386 1.13-.64 2.25-.773 3.346-.337 2.764.137 5.37 1.57 7.548l4.43 6.738c2.666 4.058 8.023 5.714 14.147 4.986a27.26 27.26 0 0 0 3.496-.659 31.067 31.067 0 0 0 2.312-.679c-.725.246-1.435.419-2.156.611L465.44 94.7c.23-.294.47-.582.713-.87.368-.43.738-.858 1.143-1.273.145-.158.268-.266.403-.403l19.966 30.554c-.347.133-.688.261-1.109.407 1.795-.61 2.845-1.1 3.81-1.61.326-.173.64-.348.971-.53 1.312-.723.76-3.784-1.22-6.8L476.46 93.407c-1.979-3.014-4.494-4.814-5.587-3.994-.56.421-1.071.803-1.655 1.303-4.298-8.158-7.224-16.27-6.13-23.672.934-6.318 4.793-12.119 13.26-16.983 18.395-10.566 29.782-.247 38.96 14.179-.725.253-1.315.503-1.963.776-.442.187-.688.692-.753 1.402-.066.729.059 1.675.367 2.732.246.843.602 1.753 1.072 2.675l11.25 22.15c1.634 3.215 4.022 5.22 5.307 4.451.268-.16.526-.315.784-.473.804-.491 1.61-1.03 2.707-1.931.24-.198.492-.409.763-.645-.338.29-.62.52-.909.753l-16.612-32.482c.187-.047.342-.1.553-.146.563-.14 1.122-.246 1.68-.348.37-.065.742-.127 1.112-.179l15.786 30.85c-.528.525-1.032 1.05-1.61 1.552 3.05-2.64 5.318-5.65 6.625-8.68 1.559-3.616 1.742-7.26.177-10.338l-3.65-7.186c-1.647-3.246-4.941-5.318-9.084-6.134M709.273 593.123c-.866-.005-1.75.038-2.652.124-4.91-8.174-14.004-21.304-28.062-23.31-6.071-.865-13.06.336-21.043 4.921-10.38 5.963-14.94 13.342-16.265 20.829-2.054 11.595 3.672 23.434 7.727 30.672a25.39 25.39 0 0 0-1.476 2.299c-2.261-3.997-4.366-8.073-6.088-12.163-3.413-8.111-5.323-16.264-3.983-23.907 1.366-7.801 6.14-15.062 16.145-21.203.47-.29.929-.582 1.422-.866 26.483-15.212 42.383 2.469 54.362 22.606l-.087-.002m7.638 3.106c-.031-.078-.061-.156-.105-.232-12.16-20.953-29.956-42.808-59.915-25.599-11.902 6.837-17.46 15.11-19.093 23.907-2.472 13.337 4.1 27.887 11.427 40.512.044.076.096.142.148.208-.386 1.13-.64 2.249-.773 3.346-.337 2.764.137 5.37 1.57 7.548l4.43 6.737c2.666 4.059 8.023 5.714 14.147 4.987a27.26 27.26 0 0 0 3.496-.659 31.068 31.068 0 0 0 2.312-.679c-.725.246-1.435.418-2.156.611l-18.96-29.027c.23-.293.47-.582.713-.87.368-.43.738-.857 1.143-1.273.145-.158.268-.265.403-.403l19.966 30.555c-.347.133-.688.261-1.109.407 1.795-.61 2.845-1.1 3.81-1.611.326-.172.64-.347.971-.53 1.312-.723.76-3.784-1.22-6.799l-13.655-20.768c-1.979-3.015-4.494-4.814-5.587-3.994-.56.42-1.071.803-1.655 1.303-4.298-8.159-7.224-16.271-6.13-23.673.934-6.317 4.793-12.118 13.26-16.982 18.395-10.567 29.782-.248 38.96 14.179-.725.252-1.315.503-1.963.775-.442.188-.688.692-.753 1.403-.066.728.059 1.675.367 2.732.246.843.602 1.753 1.072 2.675l11.25 22.15c1.634 3.214 4.022 5.22 5.307 4.451.268-.16.526-.315.784-.473.804-.491 1.61-1.03 2.707-1.932.24-.198.492-.408.763-.644-.338.29-.62.52-.909.753l-16.612-32.482c.187-.048.342-.1.553-.146.563-.14 1.122-.246 1.68-.348.37-.065.742-.127 1.112-.179l15.786 30.85c-.528.525-1.032 1.05-1.61 1.552 3.05-2.64 5.318-5.65 6.625-8.68 1.559-3.616 1.742-7.26.177-10.338l-3.65-7.187c-1.647-3.245-4.941-5.317-9.084-6.133"/>
        <g transform="rotate(-30 1107.183 -881.332)">
            <mask id="b" fill="#fff">
                <use xlink:href="#a"/>
            </mask>
            <path fill="#FFF" d="M54.877 41.776c0 7.922 0 22.667-13.702 32.082C34.938 78.144 31.32 81 29.38 83.43c-1.941-2.429-5.56-5.285-11.797-9.57C3.879 64.442 3.879 49.698 3.879 41.775V24.173c6.608-.381 12.49-2.728 17.509-6.99 3.67-3.116 6.24-6.707 7.991-9.854 1.752 3.147 4.32 6.738 7.99 9.854 5.02 4.262 10.901 6.609 17.508 6.99v17.603zm1.941-21.683c-16.163 0-23.34-12.638-25.675-18.071-.317-.736-1.006-1.207-1.764-1.207-.759 0-1.448.471-1.765 1.207-2.335 5.433-9.513 18.07-25.674 18.07-1.071 0-1.94.926-1.94 2.069v19.615c0 8.09 0 24.922 15.48 35.559 8.718 5.99 11.96 9.002 11.96 11.114 0 1.142.868 2.068 1.939 2.068 1.07 0 1.939-.926 1.939-2.068 0-2.112 3.241-5.125 11.96-11.114 15.48-10.637 15.48-27.47 15.48-35.559V22.161c0-1.143-.869-2.068-1.94-2.068z" mask="url(#b)"/>
        </g>
        <path fill="#FFF" d="M623.256 436.09c-1.217 6.546-4.215 14.108-11.036 20.245l6.068 10.51c2.235 3.87 4.719 7.933 8.345 11.325 4.143 3.875 8.933 5.978 14.645 6.426 4.036.316 7.582.646 10.668 1.186 1.075-2.943 2.563-6.178 4.305-9.83 2.469-5.172 3.043-10.372 1.76-15.897-1.126-4.836-3.402-9.019-5.637-12.89l-6.068-10.51c-8.726 2.839-16.773 1.654-23.05-.566"/>
        <g transform="rotate(-30 983.163 81.107)">
            <mask id="d" fill="#fff">
                <use xlink:href="#c"/>
            </mask>
            <path fill="#FFF" d="M54.877 41.776c0 7.922 0 22.667-13.702 32.082C34.938 78.144 31.32 81 29.38 83.43c-1.941-2.429-5.56-5.285-11.797-9.57C3.879 64.442 3.879 49.698 3.879 41.775V24.173c6.608-.381 12.49-2.728 17.509-6.99 3.67-3.116 6.24-6.707 7.991-9.854 1.752 3.147 4.32 6.738 7.99 9.854 5.02 4.262 10.901 6.609 17.508 6.99v17.603zm1.941-21.683c-16.163 0-23.34-12.638-25.675-18.071-.317-.736-1.006-1.207-1.764-1.207-.759 0-1.448.471-1.765 1.207-2.335 5.433-9.513 18.07-25.674 18.07-1.071 0-1.94.926-1.94 2.069v19.615c0 8.09 0 24.922 15.48 35.559 8.718 5.99 11.96 9.002 11.96 11.114 0 1.142.868 2.068 1.939 2.068 1.07 0 1.939-.926 1.939-2.068 0-2.112 3.241-5.125 11.96-11.114 15.48-10.637 15.48-27.47 15.48-35.559V22.161c0-1.143-.869-2.068-1.94-2.068z" mask="url(#d)"/>
        </g>
        <path fill="#FFF" d="M125.42 503.021c-1.216 6.547-4.214 14.109-11.035 20.246l6.068 10.51c2.235 3.87 4.719 7.933 8.345 11.325 4.143 3.875 8.933 5.978 14.645 6.426 4.036.316 7.582.646 10.668 1.186 1.075-2.943 2.563-6.178 4.305-9.83 2.469-5.172 3.043-10.372 1.76-15.897-1.126-4.836-3.402-9.019-5.637-12.89l-6.068-10.51c-8.726 2.839-16.773 1.654-23.05-.566"/>
        <g transform="rotate(-30 162.656 -454.417)">
            <mask id="f" fill="#fff">
                <use xlink:href="#e"/>
            </mask>
            <path fill="#FFF" d="M54.877 41.776c0 7.922 0 22.667-13.702 32.082C34.938 78.144 31.32 81 29.38 83.43c-1.941-2.429-5.56-5.285-11.797-9.57C3.879 64.442 3.879 49.698 3.879 41.775V24.173c6.608-.381 12.49-2.728 17.509-6.99 3.67-3.116 6.24-6.707 7.991-9.854 1.752 3.147 4.32 6.738 7.99 9.854 5.02 4.262 10.901 6.609 17.508 6.99v17.603zm1.941-21.683c-16.163 0-23.34-12.638-25.675-18.071-.317-.736-1.006-1.207-1.764-1.207-.759 0-1.448.471-1.765 1.207-2.335 5.433-9.513 18.07-25.674 18.07-1.071 0-1.94.926-1.94 2.069v19.615c0 8.09 0 24.922 15.48 35.559 8.718 5.99 11.96 9.002 11.96 11.114 0 1.142.868 2.068 1.939 2.068 1.07 0 1.939-.926 1.939-2.068 0-2.112 3.241-5.125 11.96-11.114 15.48-10.637 15.48-27.47 15.48-35.559V22.161c0-1.143-.869-2.068-1.94-2.068z" mask="url(#f)"/>
        </g>
        <path fill="#FFF" d="M283.256 21.021c-1.217 6.547-4.215 14.109-11.036 20.246l6.068 10.51c2.235 3.87 4.719 7.933 8.345 11.325 4.143 3.875 8.933 5.978 14.645 6.426 4.036.316 7.582.646 10.668 1.186 1.075-2.943 2.563-6.178 4.305-9.83 2.469-5.172 3.043-10.372 1.76-15.897-1.126-4.836-3.402-9.019-5.637-12.89l-6.068-10.51c-8.726 2.839-16.773 1.654-23.05-.566"/>
        <g transform="rotate(-30 1551.695 -1824.225)">
            <mask id="h" fill="#fff">
                <use xlink:href="#g"/>
            </mask>
            <path fill="#FFF" d="M54.877 41.776c0 7.922 0 22.667-13.702 32.082C34.938 78.144 31.32 81 29.38 83.43c-1.941-2.429-5.56-5.285-11.797-9.57C3.879 64.442 3.879 49.698 3.879 41.775V24.173c6.608-.381 12.49-2.728 17.509-6.99 3.67-3.116 6.24-6.707 7.991-9.854 1.752 3.147 4.32 6.738 7.99 9.854 5.02 4.262 10.901 6.609 17.508 6.99v17.603zm1.941-21.683c-16.163 0-23.34-12.638-25.675-18.071-.317-.736-1.006-1.207-1.764-1.207-.759 0-1.448.471-1.765 1.207-2.335 5.433-9.513 18.07-25.674 18.07-1.071 0-1.94.926-1.94 2.069v19.615c0 8.09 0 24.922 15.48 35.559 8.718 5.99 11.96 9.002 11.96 11.114 0 1.142.868 2.068 1.939 2.068 1.07 0 1.939-.926 1.939-2.068 0-2.112 3.241-5.125 11.96-11.114 15.48-10.637 15.48-27.47 15.48-35.559V22.161c0-1.143-.869-2.068-1.94-2.068z" mask="url(#h)"/>
        </g>
        <path fill="#FFF" d="M1154.256 532.021c-1.217 6.547-4.215 14.109-11.036 20.246l6.068 10.51c2.235 3.87 4.719 7.933 8.345 11.325 4.143 3.875 8.933 5.978 14.645 6.426 4.036.316 7.582.646 10.668 1.186 1.075-2.943 2.563-6.178 4.305-9.83 2.469-5.172 3.043-10.372 1.76-15.897-1.126-4.836-3.402-9.019-5.637-12.89l-6.068-10.51c-8.726 2.839-16.773 1.654-23.05-.566"/>
        <g transform="rotate(-30 917.361 -1778.195)">
            <mask id="j" fill="#fff">
                <use xlink:href="#i"/>
            </mask>
            <path fill="#FFF" d="M54.877 41.776c0 7.922 0 22.667-13.702 32.082C34.938 78.144 31.32 81 29.38 83.43c-1.941-2.429-5.56-5.285-11.797-9.57C3.879 64.442 3.879 49.698 3.879 41.775V24.173c6.608-.381 12.49-2.728 17.509-6.99 3.67-3.116 6.24-6.707 7.991-9.854 1.752 3.147 4.32 6.738 7.99 9.854 5.02 4.262 10.901 6.609 17.508 6.99v17.603zm1.941-21.683c-16.163 0-23.34-12.638-25.675-18.071-.317-.736-1.006-1.207-1.764-1.207-.759 0-1.448.471-1.765 1.207-2.335 5.433-9.513 18.07-25.674 18.07-1.071 0-1.94.926-1.94 2.069v19.615c0 8.09 0 24.922 15.48 35.559 8.718 5.99 11.96 9.002 11.96 11.114 0 1.142.868 2.068 1.939 2.068 1.07 0 1.939-.926 1.939-2.068 0-2.112 3.241-5.125 11.96-11.114 15.48-10.637 15.48-27.47 15.48-35.559V22.161c0-1.143-.869-2.068-1.94-2.068z" mask="url(#j)"/>
        </g>
        <path fill="#FFF" d="M1046.256 221.021c-1.217 6.547-4.215 14.109-11.036 20.246l6.068 10.51c2.235 3.87 4.719 7.933 8.345 11.325 4.143 3.875 8.933 5.978 14.645 6.426 4.036.316 7.582.646 10.668 1.186 1.075-2.943 2.563-6.178 4.305-9.83 2.469-5.172 3.043-10.372 1.76-15.897-1.126-4.836-3.402-9.019-5.637-12.89l-6.068-10.51c-8.726 2.839-16.773 1.654-23.05-.566"/>
        <g transform="rotate(-30 426.96 -1485.597)">
            <mask id="l" fill="#fff">
                <use xlink:href="#k"/>
            </mask>
            <path fill="#FFF" d="M54.877 41.776c0 7.922 0 22.667-13.702 32.082C34.938 78.144 31.32 81 29.38 83.43c-1.941-2.429-5.56-5.285-11.797-9.57C3.879 64.442 3.879 49.698 3.879 41.775V24.173c6.608-.381 12.49-2.728 17.509-6.99 3.67-3.116 6.24-6.707 7.991-9.854 1.752 3.147 4.32 6.738 7.99 9.854 5.02 4.262 10.901 6.609 17.508 6.99v17.603zm1.941-21.683c-16.163 0-23.34-12.638-25.675-18.071-.317-.736-1.006-1.207-1.764-1.207-.759 0-1.448.471-1.765 1.207-2.335 5.433-9.513 18.07-25.674 18.07-1.071 0-1.94.926-1.94 2.069v19.615c0 8.09 0 24.922 15.48 35.559 8.718 5.99 11.96 9.002 11.96 11.114 0 1.142.868 2.068 1.939 2.068 1.07 0 1.939-.926 1.939-2.068 0-2.112 3.241-5.125 11.96-11.114 15.48-10.637 15.48-27.47 15.48-35.559V22.161c0-1.143-.869-2.068-1.94-2.068z" mask="url(#l)"/>
        </g>
        <path fill="#FFF" d="M834.256 15.021c-1.217 6.547-4.215 14.109-11.036 20.246l6.068 10.51c2.235 3.87 4.719 7.933 8.345 11.325 4.143 3.875 8.933 5.978 14.645 6.426 4.036.316 7.582.646 10.668 1.186 1.075-2.943 2.563-6.178 4.305-9.83 2.469-5.172 3.043-10.372 1.76-15.897-1.126-4.836-3.402-9.019-5.637-12.89l-6.068-10.51c-8.726 2.839-16.773 1.654-23.05-.566"/>
        <g transform="rotate(-30 554.744 -552.764)">
            <mask id="n" fill="#fff">
                <use xlink:href="#m"/>
            </mask>
            <path fill="#FFF" d="M73.01 21.41c0 1.393-1.048 2.53-2.327 2.53H67.35c-1.28 0-2.328-1.137-2.328-2.53v-4.833c0-1.39 1.048-2.53 2.328-2.53h3.333c1.28 0 2.327 1.14 2.327 2.53v4.833zm0 13.126c0 1.392-1.048 2.53-2.327 2.53H67.35c-1.28 0-2.328-1.138-2.328-2.53v-5.237c0-1.392 1.048-2.53 2.328-2.53h3.333c1.28 0 2.327 1.138 2.327 2.53v5.237zM62.42 21.41c0 1.393-1.047 2.53-2.328 2.53h-3.333c-1.28 0-2.327-1.137-2.327-2.53v-4.833c0-1.39 1.048-2.53 2.327-2.53h3.333c1.281 0 2.328 1.14 2.328 2.53v4.833zm0 13.126c0 1.392-1.047 2.53-2.328 2.53h-3.333c-1.28 0-2.327-1.138-2.327-2.53v-5.237c0-1.392 1.048-2.53 2.327-2.53h3.333c1.281 0 2.328 1.138 2.328 2.53v5.237zM27.296 21.41c0 1.393-1.047 2.53-2.327 2.53h-3.332c-1.281 0-2.329-1.137-2.329-2.53v-4.833c0-1.39 1.048-2.53 2.33-2.53h3.33c1.281 0 2.328 1.14 2.328 2.53v4.833zm0 13.126c0 1.392-1.047 2.53-2.327 2.53h-3.332c-1.281 0-2.329-1.138-2.329-2.53v-5.237c0-1.392 1.048-2.53 2.33-2.53h3.33c1.281 0 2.328 1.138 2.328 2.53v5.237zM16.706 21.41c0 1.393-1.047 2.53-2.327 2.53h-3.332c-1.281 0-2.33-1.137-2.33-2.53v-4.833c0-1.39 1.049-2.53 2.33-2.53h3.332c1.28 0 2.328 1.14 2.328 2.53v4.833zm0 13.126c0 1.392-1.047 2.53-2.327 2.53h-3.332c-1.281 0-2.33-1.138-2.33-2.53v-5.237c0-1.392 1.049-2.53 2.33-2.53h3.332c1.28 0 2.328 1.138 2.328 2.53v5.237zM79.399.67H2.328C1.048.671 0 1.81 0 3.201v48.302c0 1.392 1.049 2.53 2.328 2.53h27.384c1.28 0 2.328-1.138 2.328-2.53V23.025c0-.504 1.047-.917 2.327-.917h12.994c1.28 0 2.327.413 2.327.916v28.479c0 1.392 1.048 2.53 2.33 2.53h27.38c1.282 0 2.329-1.138 2.329-2.53V3.201c0-1.392-1.047-2.53-2.329-2.53z" mask="url(#n)"/>
        </g>
        <g transform="rotate(-30 484.558 -535.488)">
            <mask id="p" fill="#fff">
                <use xlink:href="#o"/>
            </mask>
            <path fill="#FFF" d="M1.564 33.406h77.07c1.281 0 1.5-.696.485-1.547L41.942.639c-.507-.426-1.175-.64-1.842-.64-.67 0-1.337.214-1.843.64L22.677 13.72c-.35.292-.676.434-.955.434-.531 0-.887-.506-.887-1.418V2.63c0-1.393-1.05-2.531-2.328-2.531h-6.793c-1.281 0-2.328 1.138-2.328 2.53v19.722c0 1.393-.828 3.226-1.841 4.077l-6.467 5.43c-1.013.852-.795 1.548.486 1.548" mask="url(#p)"/>
        </g>
        <g transform="rotate(-30 1310.126 -1876.122)">
            <mask id="r" fill="#fff">
                <use xlink:href="#q"/>
            </mask>
            <path fill="#FFF" d="M73.01 21.41c0 1.393-1.048 2.53-2.327 2.53H67.35c-1.28 0-2.328-1.137-2.328-2.53v-4.833c0-1.39 1.048-2.53 2.328-2.53h3.333c1.28 0 2.327 1.14 2.327 2.53v4.833zm0 13.126c0 1.392-1.048 2.53-2.327 2.53H67.35c-1.28 0-2.328-1.138-2.328-2.53v-5.237c0-1.392 1.048-2.53 2.328-2.53h3.333c1.28 0 2.327 1.138 2.327 2.53v5.237zM62.42 21.41c0 1.393-1.047 2.53-2.328 2.53h-3.333c-1.28 0-2.327-1.137-2.327-2.53v-4.833c0-1.39 1.048-2.53 2.327-2.53h3.333c1.281 0 2.328 1.14 2.328 2.53v4.833zm0 13.126c0 1.392-1.047 2.53-2.328 2.53h-3.333c-1.28 0-2.327-1.138-2.327-2.53v-5.237c0-1.392 1.048-2.53 2.327-2.53h3.333c1.281 0 2.328 1.138 2.328 2.53v5.237zM27.296 21.41c0 1.393-1.047 2.53-2.327 2.53h-3.332c-1.281 0-2.329-1.137-2.329-2.53v-4.833c0-1.39 1.048-2.53 2.33-2.53h3.33c1.281 0 2.328 1.14 2.328 2.53v4.833zm0 13.126c0 1.392-1.047 2.53-2.327 2.53h-3.332c-1.281 0-2.329-1.138-2.329-2.53v-5.237c0-1.392 1.048-2.53 2.33-2.53h3.33c1.281 0 2.328 1.138 2.328 2.53v5.237zM16.706 21.41c0 1.393-1.047 2.53-2.327 2.53h-3.332c-1.281 0-2.33-1.137-2.33-2.53v-4.833c0-1.39 1.049-2.53 2.33-2.53h3.332c1.28 0 2.328 1.14 2.328 2.53v4.833zm0 13.126c0 1.392-1.047 2.53-2.327 2.53h-3.332c-1.281 0-2.33-1.138-2.33-2.53v-5.237c0-1.392 1.049-2.53 2.33-2.53h3.332c1.28 0 2.328 1.138 2.328 2.53v5.237zM79.399.67H2.328C1.048.671 0 1.81 0 3.201v48.302c0 1.392 1.049 2.53 2.328 2.53h27.384c1.28 0 2.328-1.138 2.328-2.53V23.025c0-.504 1.047-.917 2.327-.917h12.994c1.28 0 2.327.413 2.327.916v28.479c0 1.392 1.048 2.53 2.33 2.53h27.38c1.282 0 2.329-1.138 2.329-2.53V3.201c0-1.392-1.047-2.53-2.329-2.53z" mask="url(#r)"/>
        </g>
        <g transform="rotate(-30 1239.94 -1858.845)">
            <mask id="t" fill="#fff">
                <use xlink:href="#s"/>
            </mask>
            <path fill="#FFF" d="M1.564 33.406h77.07c1.281 0 1.5-.696.485-1.547L41.942.639c-.507-.426-1.175-.64-1.842-.64-.67 0-1.337.214-1.843.64L22.677 13.72c-.35.292-.676.434-.955.434-.531 0-.887-.506-.887-1.418V2.63c0-1.393-1.05-2.531-2.328-2.531h-6.793c-1.281 0-2.328 1.138-2.328 2.53v19.722c0 1.393-.828 3.226-1.841 4.077l-6.467 5.43c-1.013.852-.795 1.548.486 1.548" mask="url(#t)"/>
        </g>
        <g transform="rotate(-30 711.123 -1658.863)">
            <mask id="v" fill="#fff">
                <use xlink:href="#u"/>
            </mask>
            <path fill="#FFF" d="M73.01 21.41c0 1.393-1.048 2.53-2.327 2.53H67.35c-1.28 0-2.328-1.137-2.328-2.53v-4.833c0-1.39 1.048-2.53 2.328-2.53h3.333c1.28 0 2.327 1.14 2.327 2.53v4.833zm0 13.126c0 1.392-1.048 2.53-2.327 2.53H67.35c-1.28 0-2.328-1.138-2.328-2.53v-5.237c0-1.392 1.048-2.53 2.328-2.53h3.333c1.28 0 2.327 1.138 2.327 2.53v5.237zM62.42 21.41c0 1.393-1.047 2.53-2.328 2.53h-3.333c-1.28 0-2.327-1.137-2.327-2.53v-4.833c0-1.39 1.048-2.53 2.327-2.53h3.333c1.281 0 2.328 1.14 2.328 2.53v4.833zm0 13.126c0 1.392-1.047 2.53-2.328 2.53h-3.333c-1.28 0-2.327-1.138-2.327-2.53v-5.237c0-1.392 1.048-2.53 2.327-2.53h3.333c1.281 0 2.328 1.138 2.328 2.53v5.237zM27.296 21.41c0 1.393-1.047 2.53-2.327 2.53h-3.332c-1.281 0-2.329-1.137-2.329-2.53v-4.833c0-1.39 1.048-2.53 2.33-2.53h3.33c1.281 0 2.328 1.14 2.328 2.53v4.833zm0 13.126c0 1.392-1.047 2.53-2.327 2.53h-3.332c-1.281 0-2.329-1.138-2.329-2.53v-5.237c0-1.392 1.048-2.53 2.33-2.53h3.33c1.281 0 2.328 1.138 2.328 2.53v5.237zM16.706 21.41c0 1.393-1.047 2.53-2.327 2.53h-3.332c-1.281 0-2.33-1.137-2.33-2.53v-4.833c0-1.39 1.049-2.53 2.33-2.53h3.332c1.28 0 2.328 1.14 2.328 2.53v4.833zm0 13.126c0 1.392-1.047 2.53-2.327 2.53h-3.332c-1.281 0-2.33-1.138-2.33-2.53v-5.237c0-1.392 1.049-2.53 2.33-2.53h3.332c1.28 0 2.328 1.138 2.328 2.53v5.237zM79.399.67H2.328C1.048.671 0 1.81 0 3.201v48.302c0 1.392 1.049 2.53 2.328 2.53h27.384c1.28 0 2.328-1.138 2.328-2.53V23.025c0-.504 1.047-.917 2.327-.917h12.994c1.28 0 2.327.413 2.327.916v28.479c0 1.392 1.048 2.53 2.33 2.53h27.38c1.282 0 2.329-1.138 2.329-2.53V3.201c0-1.392-1.047-2.53-2.329-2.53z" mask="url(#v)"/>
        </g>
        <g transform="rotate(-30 640.937 -1641.586)">
            <mask id="x" fill="#fff">
                <use xlink:href="#w"/>
            </mask>
            <path fill="#FFF" d="M1.564 33.406h77.07c1.281 0 1.5-.696.485-1.547L41.942.639c-.507-.426-1.175-.64-1.842-.64-.67 0-1.337.214-1.843.64L22.677 13.72c-.35.292-.676.434-.955.434-.531 0-.887-.506-.887-1.418V2.63c0-1.393-1.05-2.531-2.328-2.531h-6.793c-1.281 0-2.328 1.138-2.328 2.53v19.722c0 1.393-.828 3.226-1.841 4.077l-6.467 5.43c-1.013.852-.795 1.548.486 1.548" mask="url(#x)"/>
        </g>
        <g transform="rotate(-30 1235.167 -626.446)">
            <mask id="z" fill="#fff">
                <use xlink:href="#y"/>
            </mask>
            <path fill="#FFF" d="M73.01 21.41c0 1.393-1.048 2.53-2.327 2.53H67.35c-1.28 0-2.328-1.137-2.328-2.53v-4.833c0-1.39 1.048-2.53 2.328-2.53h3.333c1.28 0 2.327 1.14 2.327 2.53v4.833zm0 13.126c0 1.392-1.048 2.53-2.327 2.53H67.35c-1.28 0-2.328-1.138-2.328-2.53v-5.237c0-1.392 1.048-2.53 2.328-2.53h3.333c1.28 0 2.327 1.138 2.327 2.53v5.237zM62.42 21.41c0 1.393-1.047 2.53-2.328 2.53h-3.333c-1.28 0-2.327-1.137-2.327-2.53v-4.833c0-1.39 1.048-2.53 2.327-2.53h3.333c1.281 0 2.328 1.14 2.328 2.53v4.833zm0 13.126c0 1.392-1.047 2.53-2.328 2.53h-3.333c-1.28 0-2.327-1.138-2.327-2.53v-5.237c0-1.392 1.048-2.53 2.327-2.53h3.333c1.281 0 2.328 1.138 2.328 2.53v5.237zM27.296 21.41c0 1.393-1.047 2.53-2.327 2.53h-3.332c-1.281 0-2.329-1.137-2.329-2.53v-4.833c0-1.39 1.048-2.53 2.33-2.53h3.33c1.281 0 2.328 1.14 2.328 2.53v4.833zm0 13.126c0 1.392-1.047 2.53-2.327 2.53h-3.332c-1.281 0-2.329-1.138-2.329-2.53v-5.237c0-1.392 1.048-2.53 2.33-2.53h3.33c1.281 0 2.328 1.138 2.328 2.53v5.237zM16.706 21.41c0 1.393-1.047 2.53-2.327 2.53h-3.332c-1.281 0-2.33-1.137-2.33-2.53v-4.833c0-1.39 1.049-2.53 2.33-2.53h3.332c1.28 0 2.328 1.14 2.328 2.53v4.833zm0 13.126c0 1.392-1.047 2.53-2.327 2.53h-3.332c-1.281 0-2.33-1.138-2.33-2.53v-5.237c0-1.392 1.049-2.53 2.33-2.53h3.332c1.28 0 2.328 1.138 2.328 2.53v5.237zM79.399.67H2.328C1.048.671 0 1.81 0 3.201v48.302c0 1.392 1.049 2.53 2.328 2.53h27.384c1.28 0 2.328-1.138 2.328-2.53V23.025c0-.504 1.047-.917 2.327-.917h12.994c1.28 0 2.327.413 2.327.916v28.479c0 1.392 1.048 2.53 2.33 2.53h27.38c1.282 0 2.329-1.138 2.329-2.53V3.201c0-1.392-1.047-2.53-2.329-2.53z" mask="url(#z)"/>
        </g>
        <g transform="rotate(-30 1164.98 -609.17)">
            <mask id="B" fill="#fff">
                <use xlink:href="#A"/>
            </mask>
            <path fill="#FFF" d="M1.564 33.406h77.07c1.281 0 1.5-.696.485-1.547L41.942.639c-.507-.426-1.175-.64-1.842-.64-.67 0-1.337.214-1.843.64L22.677 13.72c-.35.292-.676.434-.955.434-.531 0-.887-.506-.887-1.418V2.63c0-1.393-1.05-2.531-2.328-2.531h-6.793c-1.281 0-2.328 1.138-2.328 2.53v19.722c0 1.393-.828 3.226-1.841 4.077l-6.467 5.43c-1.013.852-.795 1.548.486 1.548" mask="url(#B)"/>
        </g>
        <g transform="rotate(-30 844.103 -639.823)">
            <path fill="#FFF" d="M55.196 79.29c6.284 0 11.378 5.55 11.378 12.4H18.36c0-6.85 5.094-12.4 11.379-12.4h25.457z"/>
            <mask id="D" fill="#fff">
                <use xlink:href="#C"/>
            </mask>
            <path fill="#FFF" d="M35.053 76.659h14.828v-9.395H35.053zM76.684 52.897c0 1.289-.987 2.343-2.194 2.343H10.444c-1.207 0-2.194-1.054-2.194-2.343V11.361c0-1.288.987-2.343 2.194-2.343H74.49c1.207 0 2.194 1.055 2.194 2.343v41.536zM82.784 0H2.15C.967 0 0 1.054 0 2.343v59.573c0 1.288.968 2.342 2.15 2.342h80.636c1.182 0 2.15-1.054 2.15-2.342V2.343c0-1.29-.968-2.343-2.15-2.343z" mask="url(#D)"/>
        </g>
        <g transform="rotate(-30 715.42 45.696)">
            <path fill="#FFF" d="M55.196 79.29c6.284 0 11.378 5.55 11.378 12.4H18.36c0-6.85 5.094-12.4 11.379-12.4h25.457z"/>
            <mask id="F" fill="#fff">
                <use xlink:href="#E"/>
            </mask>
            <path fill="#FFF" d="M35.053 76.659h14.828v-9.395H35.053zM76.684 52.897c0 1.289-.987 2.343-2.194 2.343H10.444c-1.207 0-2.194-1.054-2.194-2.343V11.361c0-1.288.987-2.343 2.194-2.343H74.49c1.207 0 2.194 1.055 2.194 2.343v41.536zM82.784 0H2.15C.967 0 0 1.054 0 2.343v59.573c0 1.288.968 2.342 2.15 2.342h80.636c1.182 0 2.15-1.054 2.15-2.342V2.343c0-1.29-.968-2.343-2.15-2.343z" mask="url(#F)"/>
        </g>
        <g transform="rotate(-30 1469.436 -1280.028)">
            <path fill="#FFF" d="M55.196 79.29c6.284 0 11.378 5.55 11.378 12.4H18.36c0-6.85 5.094-12.4 11.379-12.4h25.457z"/>
            <mask id="H" fill="#fff">
                <use xlink:href="#G"/>
            </mask>
            <path fill="#FFF" d="M35.053 76.659h14.828v-9.395H35.053zM76.684 52.897c0 1.289-.987 2.343-2.194 2.343H10.444c-1.207 0-2.194-1.054-2.194-2.343V11.361c0-1.288.987-2.343 2.194-2.343H74.49c1.207 0 2.194 1.055 2.194 2.343v41.536zM82.784 0H2.15C.967 0 0 1.054 0 2.343v59.573c0 1.288.968 2.342 2.15 2.342h80.636c1.182 0 2.15-1.054 2.15-2.342V2.343c0-1.29-.968-2.343-2.15-2.343z" mask="url(#H)"/>
        </g>
        <g transform="rotate(-30 308.65 -207.639)">
            <mask id="J" fill="#fff">
                <use xlink:href="#I"/>
            </mask>
            <path fill="#FFF" d="M2.351 16.284h2.246c1.102 0 2.031-.548 2.031-1.199V8.382c0-.795.615-1.467 1.338-1.467H27.54c.725 0 1.338.672 1.338 1.467v6.776c0 .601.95 1.126 2.03 1.126h2.247c1.082 0 2.032-.525 2.032-1.126V8.382C35.187 3.76 31.757 0 27.54 0H7.966C3.751 0 .32 3.759.32 8.382v6.594c0 .71.932 1.308 2.032 1.308" mask="url(#J)"/>
        </g>
        <path fill="#FFF" d="M189.783 174.456l5.358-3.093c.97-.56 1.26-1.881.647-2.945l-1.266-2.193c-.615-1.064-1.903-1.472-2.873-.912l-5.358 3.094c-.97.56-1.263 1.88-.648 2.944l1.266 2.193c.614 1.064 1.904 1.472 2.874.912M192.73 183.625c.614 1.064 1.903 1.473 2.874.912l5.358-3.093c.97-.56 1.26-1.88.646-2.944l-1.671-2.895c-.614-1.063-1.903-1.473-2.873-.912l-5.358 3.093c-.971.56-1.261 1.882-.647 2.945l1.67 2.894z"/>
        <g transform="rotate(-30 430.355 -185.18)">
            <mask id="L" fill="#fff">
                <use xlink:href="#K"/>
            </mask>
            <path fill="#FFF" d="M86.867 2.013c-.549.223-1.03.41-1.477.578-9.935 3.752-20.617 6.037-31.776 6.803v4.32c0 3.783-2.809 6.861-6.26 6.861h-4.132c-3.45 0-6.26-3.078-6.26-6.86V9.391C24.916 8.567 13.465 5.979 2.907 1.696c-.303-.095-.855-.33-2.187-.914L.548.707.326.611v28.142c0 3.098 2.298 5.618 5.123 5.618h79.678c2.826 0 5.124-2.52 5.124-5.618V.573c-.357.158-.743.327-1.144.5l-2.24.94z" mask="url(#L)"/>
        </g>
        <g transform="rotate(-30 360.726 -163.464)">
            <mask id="N" fill="#fff">
                <use xlink:href="#M"/>
            </mask>
            <path fill="#FFF" d="M88.668.4H4.97C2.229.4-.001 2.845-.001 5.85v24.348c0 .571.525 1.452 1 1.682.015.007.918.442 2.384 1.08 10.61 4.628 22.734 7.52 35.124 8.406v-4.092c0-2.715 3.736-4.565 6.245-4.565h4.131c2.915 0 6.242 2.096 6.175 5.284v3.374c10.762-.759 21.143-2.97 30.71-6.583 3.02-1.14 6.838-2.922 6.876-2.94.476-.222.993-1.083.993-1.646V5.85C93.637 2.844 91.406.4 88.668.4" mask="url(#N)"/>
        </g>
        <g>
            <g transform="rotate(-30 970.261 -1520.36)">
                <mask id="P" fill="#fff">
                    <use xlink:href="#O"/>
                </mask>
                <path fill="#FFF" d="M2.351 16.284h2.246c1.102 0 2.031-.548 2.031-1.199V8.382c0-.795.615-1.467 1.338-1.467H27.54c.725 0 1.338.672 1.338 1.467v6.776c0 .601.95 1.126 2.03 1.126h2.247c1.082 0 2.032-.525 2.032-1.126V8.382C35.187 3.76 31.757 0 27.54 0H7.966C3.751 0 .32 3.759.32 8.382v6.594c0 .71.932 1.308 2.032 1.308" mask="url(#P)"/>
            </g>
            <path fill="#FFF" d="M934.783 329.39l5.358-3.093c.97-.56 1.26-1.88.647-2.944l-1.266-2.194c-.615-1.064-1.903-1.471-2.873-.911l-5.358 3.093c-.97.56-1.263 1.88-.648 2.944l1.266 2.194c.614 1.063 1.904 1.472 2.874.911M937.73 338.56c.614 1.063 1.903 1.472 2.874.912l5.358-3.094c.97-.56 1.26-1.88.646-2.944l-1.671-2.894c-.614-1.063-1.903-1.473-2.873-.913l-5.358 3.093c-.971.561-1.261 1.882-.647 2.945l1.67 2.895z"/>
            <g transform="rotate(-30 1091.967 -1497.902)">
                <mask id="R" fill="#fff">
                    <use xlink:href="#Q"/>
                </mask>
                <path fill="#FFF" d="M86.867 2.013c-.549.223-1.03.41-1.477.578-9.935 3.752-20.617 6.037-31.776 6.803v4.32c0 3.783-2.809 6.861-6.26 6.861h-4.132c-3.45 0-6.26-3.078-6.26-6.86V9.391C24.916 8.567 13.465 5.979 2.907 1.696c-.303-.095-.855-.33-2.187-.914L.548.707.326.611v28.142c0 3.098 2.298 5.618 5.123 5.618h79.678c2.826 0 5.124-2.52 5.124-5.618V.573c-.357.158-.743.327-1.144.5l-2.24.94z" mask="url(#R)"/>
            </g>
            <g transform="rotate(-30 1022.337 -1476.185)">
                <mask id="T" fill="#fff">
                    <use xlink:href="#S"/>
                </mask>
                <path fill="#FFF" d="M88.668.4H4.97C2.229.4-.001 2.845-.001 5.85v24.348c0 .571.525 1.452 1 1.682.015.007.918.442 2.384 1.08 10.61 4.628 22.734 7.52 35.124 8.406v-4.092c0-2.715 3.736-4.565 6.245-4.565h4.131c2.915 0 6.242 2.096 6.175 5.284v3.374c10.762-.759 21.143-2.97 30.71-6.583 3.02-1.14 6.838-2.922 6.876-2.94.476-.222.993-1.083.993-1.646V5.85C93.637 2.844 91.406.4 88.668.4" mask="url(#T)"/>
            </g>
        </g>
        <g>
            <g transform="rotate(-30 622.215 -957.622)">
                <mask id="V" fill="#fff">
                    <use xlink:href="#U"/>
                </mask>
                <path fill="#FFF" d="M17.95 80.069l-.08-65.845c2.575-1.062 4.404-3.737 4.4-6.873C22.265 3.285 19.19-.005 15.405 0c-3.787.005-6.852 3.305-6.848 7.37.004 3.136 1.84 5.806 4.417 6.86l.08 65.846C5.652 80.476-.005 82.613 0 85.181c.003 2.847 6.95 5.144 15.514 5.132 8.565-.013 15.505-2.329 15.501-5.174-.003-2.57-5.664-4.69-13.065-5.07" mask="url(#V)"/>
            </g>
            <path fill="#FFF" d="M604.38 214.162l30.917-36.14-46.726 8.832z"/>
        </g>
        <g transform="rotate(-30 565.563 -278.458)">
            <mask id="X" fill="#fff">
                <use xlink:href="#W"/>
            </mask>
            <path fill="#FFF" d="M42.795 51.927c0 2.125-1.644 3.863-3.653 3.863H9.206c-2.009 0-3.652-1.738-3.652-3.863V18.065c0-2.124 1.643-3.863 3.652-3.863h29.936c2.009 0 3.653 1.739 3.653 3.863v33.862zm0 13.859c0 .4-.561.726-1.247.726H31.332c-.686 0-1.248-.327-1.248-.726v-6.367c0-.4.562-.727 1.248-.727h10.216c.686 0 1.247.327 1.247.727v6.367zm-15.12 0c0 .4-.31.726-.686.726h-5.63c-.377 0-.686-.327-.686-.726v-6.367c0-.4.31-.727.686-.727h5.63c.376 0 .686.327.686.727v6.367zm-9.63 0c0 .4-.552.726-1.226.726H6.779c-.674 0-1.225-.327-1.225-.726v-6.367c0-.4.551-.727 1.225-.727h10.04c.674 0 1.226.327 1.226.727v6.367zM41.81 8.184H14.254V4.481C14.254 2.006 12.356 0 10.017 0 7.677 0 5.78 2.006 5.78 4.48v3.752C2.538 8.632 0 11.565 0 15.097v66.96c0 3.8 2.942 6.911 6.537 6.911h35.274c3.595 0 6.537-3.11 6.537-6.912v-66.96c0-3.801-2.942-6.912-6.537-6.912z" mask="url(#X)"/>
        </g>
        <g transform="rotate(-30 720.133 -2057.04)">
            <mask id="Z" fill="#fff">
                <use xlink:href="#Y"/>
            </mask>
            <path fill="#FFF" d="M42.795 51.927c0 2.125-1.644 3.863-3.653 3.863H9.206c-2.009 0-3.652-1.738-3.652-3.863V18.065c0-2.124 1.643-3.863 3.652-3.863h29.936c2.009 0 3.653 1.739 3.653 3.863v33.862zm0 13.859c0 .4-.561.726-1.247.726H31.332c-.686 0-1.248-.327-1.248-.726v-6.367c0-.4.562-.727 1.248-.727h10.216c.686 0 1.247.327 1.247.727v6.367zm-15.12 0c0 .4-.31.726-.686.726h-5.63c-.377 0-.686-.327-.686-.726v-6.367c0-.4.31-.727.686-.727h5.63c.376 0 .686.327.686.727v6.367zm-9.63 0c0 .4-.552.726-1.226.726H6.779c-.674 0-1.225-.327-1.225-.726v-6.367c0-.4.551-.727 1.225-.727h10.04c.674 0 1.226.327 1.226.727v6.367zM41.81 8.184H14.254V4.481C14.254 2.006 12.356 0 10.017 0 7.677 0 5.78 2.006 5.78 4.48v3.752C2.538 8.632 0 11.565 0 15.097v66.96c0 3.8 2.942 6.911 6.537 6.911h35.274c3.595 0 6.537-3.11 6.537-6.912v-66.96c0-3.801-2.942-6.912-6.537-6.912z" mask="url(#Z)"/>
        </g>
        <g transform="rotate(-30 1320.768 -1604.101)">
            <mask id="ab" fill="#fff">
                <use xlink:href="#aa"/>
            </mask>
            <path fill="#FFF" d="M42.795 51.927c0 2.125-1.644 3.863-3.653 3.863H9.206c-2.009 0-3.652-1.738-3.652-3.863V18.065c0-2.124 1.643-3.863 3.652-3.863h29.936c2.009 0 3.653 1.739 3.653 3.863v33.862zm0 13.859c0 .4-.561.726-1.247.726H31.332c-.686 0-1.248-.327-1.248-.726v-6.367c0-.4.562-.727 1.248-.727h10.216c.686 0 1.247.327 1.247.727v6.367zm-15.12 0c0 .4-.31.726-.686.726h-5.63c-.377 0-.686-.327-.686-.726v-6.367c0-.4.31-.727.686-.727h5.63c.376 0 .686.327.686.727v6.367zm-9.63 0c0 .4-.552.726-1.226.726H6.779c-.674 0-1.225-.327-1.225-.726v-6.367c0-.4.551-.727 1.225-.727h10.04c.674 0 1.226.327 1.226.727v6.367zM41.81 8.184H14.254V4.481C14.254 2.006 12.356 0 10.017 0 7.677 0 5.78 2.006 5.78 4.48v3.752C2.538 8.632 0 11.565 0 15.097v66.96c0 3.8 2.942 6.911 6.537 6.911h35.274c3.595 0 6.537-3.11 6.537-6.912v-66.96c0-3.801-2.942-6.912-6.537-6.912z" mask="url(#ab)"/>
        </g>
        <g transform="rotate(-30 77.76 26.836)">
            <mask id="ad" fill="#fff">
                <use xlink:href="#ac"/>
            </mask>
            <path fill="#FFF" d="M42.795 51.927c0 2.125-1.644 3.863-3.653 3.863H9.206c-2.009 0-3.652-1.738-3.652-3.863V18.065c0-2.124 1.643-3.863 3.652-3.863h29.936c2.009 0 3.653 1.739 3.653 3.863v33.862zm0 13.859c0 .4-.561.726-1.247.726H31.332c-.686 0-1.248-.327-1.248-.726v-6.367c0-.4.562-.727 1.248-.727h10.216c.686 0 1.247.327 1.247.727v6.367zm-15.12 0c0 .4-.31.726-.686.726h-5.63c-.377 0-.686-.327-.686-.726v-6.367c0-.4.31-.727.686-.727h5.63c.376 0 .686.327.686.727v6.367zm-9.63 0c0 .4-.552.726-1.226.726H6.779c-.674 0-1.225-.327-1.225-.726v-6.367c0-.4.551-.727 1.225-.727h10.04c.674 0 1.226.327 1.226.727v6.367zM41.81 8.184H14.254V4.481C14.254 2.006 12.356 0 10.017 0 7.677 0 5.78 2.006 5.78 4.48v3.752C2.538 8.632 0 11.565 0 15.097v66.96c0 3.8 2.942 6.911 6.537 6.911h35.274c3.595 0 6.537-3.11 6.537-6.912v-66.96c0-3.801-2.942-6.912-6.537-6.912z" mask="url(#ad)"/>
        </g>
        <g transform="rotate(-30 424.414 -1172.209)">
            <mask id="af" fill="#fff">
                <use xlink:href="#ae"/>
            </mask>
            <path fill="#FFF" d="M42.795 51.927c0 2.125-1.644 3.863-3.653 3.863H9.206c-2.009 0-3.652-1.738-3.652-3.863V18.065c0-2.124 1.643-3.863 3.652-3.863h29.936c2.009 0 3.653 1.739 3.653 3.863v33.862zm0 13.859c0 .4-.561.726-1.247.726H31.332c-.686 0-1.248-.327-1.248-.726v-6.367c0-.4.562-.727 1.248-.727h10.216c.686 0 1.247.327 1.247.727v6.367zm-15.12 0c0 .4-.31.726-.686.726h-5.63c-.377 0-.686-.327-.686-.726v-6.367c0-.4.31-.727.686-.727h5.63c.376 0 .686.327.686.727v6.367zm-9.63 0c0 .4-.552.726-1.226.726H6.779c-.674 0-1.225-.327-1.225-.726v-6.367c0-.4.551-.727 1.225-.727h10.04c.674 0 1.226.327 1.226.727v6.367zM41.81 8.184H14.254V4.481C14.254 2.006 12.356 0 10.017 0 7.677 0 5.78 2.006 5.78 4.48v3.752C2.538 8.632 0 11.565 0 15.097v66.96c0 3.8 2.942 6.911 6.537 6.911h35.274c3.595 0 6.537-3.11 6.537-6.912v-66.96c0-3.801-2.942-6.912-6.537-6.912z" mask="url(#af)"/>
        </g>
        <g>
            <path fill="#FFF" d="M788.327 210.555l9.756-31.19-31.885-7.138zM823.844 123.045l-59.001 34.064c-2.722 1.572-3.727 5.091-2.516 8.226l42.151 9.437 7.025 1.573c2.388.536 4.938-.936 5.67-3.273l2.26-7.22 12.792-40.873c-2.109-2.616-5.659-3.506-8.38-1.934M858.388 170.105l-22.128-38.328-9.762 31.183z"/>
            <g transform="rotate(-30 751.987 -1360.657)">
                <mask id="ah" fill="#fff">
                    <use xlink:href="#ag"/>
                </mask>
                <path fill="#FFF" d="M45.877 4.215l-4.304 3.96c-1.8 1.656-4.746 1.656-6.545 0l-5.55-5.109L26.236.084.255 23.99c1.094.97 2.479 1.556 3.982 1.556h68.13c1.503 0 2.887-.586 3.98-1.556L50.364.084l-4.487 4.13z" mask="url(#ah)"/>
            </g>
        </g>
        <g>
            <path fill="#FFF" d="M27.014 290.79l9.756-31.19-31.885-7.137zM62.53 203.28l-59 34.065c-2.723 1.572-3.727 5.091-2.517 8.226l42.152 9.437 7.025 1.573c2.388.536 4.937-.936 5.669-3.273l2.26-7.22 12.793-40.873c-2.11-2.616-5.66-3.506-8.381-1.935M97.075 250.341l-22.129-38.328-9.761 31.183z"/>
            <g transform="rotate(-30 521.053 100.09)">
                <mask id="aj" fill="#fff">
                    <use xlink:href="#ai"/>
                </mask>
                <path fill="#FFF" d="M45.877 4.215l-4.304 3.96c-1.8 1.656-4.746 1.656-6.545 0l-5.55-5.109L26.236.084.255 23.99c1.094.97 2.479 1.556 3.982 1.556h68.13c1.503 0 2.887-.586 3.98-1.556L50.364.084l-4.487 4.13z" mask="url(#aj)"/>
            </g>
        </g>
        <g>
            <path fill="#FFF" d="M287.014 647.062l9.756-31.19-31.885-7.138zM322.53 559.552l-59 34.065c-2.723 1.571-3.727 5.09-2.517 8.225l42.152 9.437 7.025 1.573c2.388.536 4.937-.936 5.669-3.273l2.26-7.22 12.793-40.873c-2.11-2.615-5.66-3.505-8.381-1.934M357.075 606.613l-22.129-38.328-9.761 31.183z"/>
            <g transform="rotate(-30 1315.865 -206.94)">
                <mask id="al" fill="#fff">
                    <use xlink:href="#ak"/>
                </mask>
                <path fill="#FFF" d="M45.877 4.215l-4.304 3.96c-1.8 1.656-4.746 1.656-6.545 0l-5.55-5.109L26.236.084.255 23.99c1.094.97 2.479 1.556 3.982 1.556h68.13c1.503 0 2.887-.586 3.98-1.556L50.364.084l-4.487 4.13z" mask="url(#al)"/>
            </g>
        </g>
        <g>
            <path fill="#FFF" d="M790.895 490.185l9.756-31.19-31.885-7.138zM826.412 402.675L767.41 436.74c-2.722 1.571-3.726 5.09-2.516 8.225l42.152 9.437 7.025 1.573c2.388.536 4.937-.936 5.669-3.273l2.26-7.22 12.793-40.873c-2.11-2.615-5.66-3.505-8.381-1.934M860.956 449.736l-22.129-38.328-9.761 31.183z"/>
            <g transform="rotate(-30 1275.069 -1225.633)">
                <mask id="an" fill="#fff">
                    <use xlink:href="#am"/>
                </mask>
                <path fill="#FFF" d="M45.877 4.215l-4.304 3.96c-1.8 1.656-4.746 1.656-6.545 0l-5.55-5.109L26.236.084.255 23.99c1.094.97 2.479 1.556 3.982 1.556h68.13c1.503 0 2.887-.586 3.98-1.556L50.364.084l-4.487 4.13z" mask="url(#an)"/>
            </g>
        </g>
    </g>
</svg>
