<svg xmlns="http://www.w3.org/2000/svg" xmlns:xlink="http://www.w3.org/1999/xlink" width="135" height="74" viewBox="0 0 135 74">
    <defs>
        <path id="a" d="M21.683 14.296V.036H.252v14.26h21.43z"/>
        <path id="c" d="M0 65.263V.227h62.14v65.036H0z"/>
    </defs>
    <g fill="none" fill-rule="evenodd">
        <path fill="#003299" d="M116.344 44.62H98.32v2.98h7.06v11.28h3.907V47.6h7.058zM44.565 54.014l3.407-6.852.816.018s.715-.092 1.32.995c.606 1.086 2.903 5.839 2.903 5.839h-8.446zM55.43 58.88h5.191l-7.018-12.626s-.712-1.633-1.967-1.633h-4.521L39.189 58.88h2.958l1.384-2.785h10.514l1.384 2.785zM85.052 54.014l3.407-6.852.816.018s.715-.092 1.32.995c.606 1.086 2.903 5.839 2.903 5.839h-8.446zm10.865 4.866h5.19l-7.018-12.626s-.712-1.633-1.967-1.633H87.6L79.676 58.88h2.958l1.384-2.785h10.514l1.385 2.785z"/>
        <g transform="translate(113.174 44.584)">
            <mask id="b" fill="#fff">
                <use xlink:href="#a"/>
            </mask>
            <path fill="#003299" d="M5.628 9.43l3.406-6.852.817.018s.715-.091 1.32.995c.605 1.087 2.903 5.84 2.903 5.84H5.628zm10.865 4.866h5.19L14.665 1.67S13.953.037 12.698.037H8.177L.252 14.296H3.21l1.383-2.784h10.515l1.385 2.784z" mask="url(#b)"/>
        </g>
        <path fill="#003299" d="M75.342 52.52a4.31 4.31 0 0 1-4.316 4.302H65.67V46.68h5.355a4.31 4.31 0 0 1 4.316 4.303v1.536zm-1.583-7.892h-8.088v-.007h-3.907V58.88h3.907v-.006h8.088c3.348 0 6.063-2.706 6.063-6.044v-2.158c0-3.338-2.715-6.044-6.063-6.044z"/>
        <path fill="#FFF" d="M50.841 25.384s-.303-.763-1.162-.458c-.859.306-.808 1.12.556 2.088 1.364.967 1.314-.764.606-1.63"/>
        <g transform="translate(0 .18)">
            <mask id="d" fill="#fff">
                <use xlink:href="#c"/>
            </mask>
            <path fill="#C03" d="M57.443 33.874c-4.855-6.166-2.171-8.831-7.54-12.412-5.367-3.58-14.605 3.501-14.605 3.501-.474-.238 1.264-1.95 1.264-1.95-3.592-3.302-9.868-18.738-10.381-20.608-.514-1.87-.79-2.546-1.106-1.989-.315.557-.631 5.848-.631 5.848S26.18 9.13 26.18 9.447c0 .318-2.014-2.029-2.014-2.029v2.427c0 1.352 0 1.95 1.027 2.904 1.026.955 1.658 2.944 1.658 2.944s-2.092-2.069-2.29-2.228c-.197-.16.908 5.57.908 5.57l2.092 1.87s-12.276-5.53-18.908-9.35C2.024 7.736.602 5.906.05 6.623c-.552.715 3.671 6.802 6.395 8.354 2.723 1.551 2.566 2.108 2.566 2.108l-3.237-1.313c3.355 5.45 11.723 9.39 11.723 9.39-1.065-.32-4.697-.995-4.697-.995 4.54 5.45 13.697 7.837 13.697 7.837-2.013.438-3.158.318-3.158.318 5.053 3.143 9.434 1.87 9.434 1.87-1.223 2.069-5.486.438-5.486.438s-5.408 6.882-6.119 14.918c-.71 8.036 2.803 15.715 2.803 15.715 1.066-2.188.631-3.422.434-4.575-.197-1.154.079-2.546.079-2.546.632 3.143 4.46 4.615 4.46 4.615-.947-1.512-.71-3.82-.71-3.82.987 1.552 3.671 1.472 3.671 1.472-1.026-.398-1.974-3.342-1.974-3.342 1.263 1.114 4.224 1.353 4.224 1.353-4.302-3.461-4.066-10.82-4.066-10.82-2.368.357-2.013-.637-2.013-.637 5.013-.517 9.947-4.257 13.579-8.872 3.632-4.615 3.513-5.888 3.513-5.888l-2.756 1.825c-.432.296-2.077 1.418-2.313 1.583.348-.376 1.914-1.846 2.223-2.075l.003.006c5.845-5.038 10.4-3.035 12.316-1.458 1.934 1.591 6.671 8.355 6.671 8.355l.83-.16s.157-.238-4.698-6.405" mask="url(#d)"/>
        </g>
        <path fill="#939" d="M49.904 21.643a5.667 5.667 0 0 0-.918-.49c-1.349 8.564-9.294 6.693-9.294 6.693l.337.882c2.694.4 4.264 1.876 5.104 3.027 4.48-2.413 7.91-.804 9.507.51 1.935 1.59 6.671 8.354 6.671 8.354.309.568 1.117.364.83-.16 0 0 .157-.238-4.698-6.404-4.855-6.167-2.171-8.832-7.54-12.412"/>
        <path fill="#6668B0" d="M42.321 33.716l.003.006c1.127-.971 2.205-1.68 3.227-2.181-.398-.92-3.31-4.297-7.12-4.772 0 0 1.328 4.335 1.665 7.323.05.434.185.88.374 1.326.595-.58 1.609-1.522 1.851-1.702M42.777 33.83c-1.375.943-1.686 1.28-2.27 1.68.359.808.902 1.61 1.478 2.332 3.282-4.257 3.182-5.458 3.182-5.458s-1.015.502-2.39 1.445"/>
        <path fill="#393" d="M39.736 40.488c-3.044-1.184-7.984-1.816-12.574.937-3.165 1.898-5.019 5.668-6.003 8.413a25.986 25.986 0 0 0-.058 3.292c2.249-.112 5.689-1.448 9.097-3.197-.138-1.283-.11-2.153-.11-2.153-2.368.358-2.013-.637-2.013-.637 4.179-.431 8.3-3.104 11.66-6.655"/>
        <path fill="#FFCB00" d="M30.086 47.958c-3.847 3.252-7.192 3.828-9.011 3.845-.002.335.002.669.013 1l.213.164 3.57 4.073 3.336 2.713c.001-.385.026-.635.026-.635.987 1.551 3.67 1.472 3.67 1.472-1.025-.398-1.972-3.342-1.972-3.342 1.263 1.114 4.223 1.353 4.223 1.353-3.907-3.144-4.07-9.502-4.068-10.643"/>
        <path fill="#F60" d="M28.944 62.937c-.802-1.278-.756-3.12-.723-3.66-.644-1.608-1.666-3.935-2.473-4.749-1.023-1.03-1.965-2.362-4.671-2.891-.08 7.301 2.893 13.806 2.893 13.806 1.066-2.188.631-3.421.434-4.575-.197-1.154.079-2.546.079-2.546.632 3.143 4.46 4.615 4.46 4.615"/>
        <path fill="#F60" d="M26.172 63.831s.94 1.876 2.28 2.07c1.34.193 2.47-.772 2.47-.772s.192 1.56-.87 2.227c0 0 .783 1.262 2.28 1.333 0 0-2.245 1.017-4.246.403 0 0-.278 1.034.522 1.507 0 0-2.053-.175-1.67-2.227 0 0-1.462-.438-1.81-1.227 0 0 1.375-.07 1.723-.455.348-.387-1.218-.667-.679-2.859M30.575 62.41s2.122.597 2.679.018c.557-.579-.487-2.052-.487-2.052s1.479.193 2.122 1.07c.644.877 1.357.86 1.792.894.435.035 1.392.824 1.392.824s-1.687-.368-1.653.14c.035.509 1.062.79 1.549 2.21.487 1.42.226 1.526.226 1.526s-1.775-2.859-2.436-2.508c-.661.35-1.01 1.684-2.853 1.49 0 0 1.287-1.384.748-2.033-.54-.65-2.366-.28-3.08-1.579M33.845 67.076s1.08-.14 1.462.508c.382.65.487.79.487.79s1.148-.737 1.183-1.491c0 0 .296 1.016.14 1.595-.157.58-.349.65.226 1.228.574.579.904 1.122.904 1.7 0 0-1.357-1.296-1.722-.876-.366.421.191 1.333.748 1.754.557.42.73.648.73.648s-1.409.263-2.018-.438c-.608-.701-.887-1.98-1.583-1.911-.696.07-.835.894-.835.894s-.295-1.403.748-2.017c1.044-.613.488-1.806-.47-2.384M39.378 70.162s.905.772.922 1.122c.018.351-.278.543-.609.824-.33.281-.33.666-.33.666s1.026-.631 1.426-.227c.4.403-.07.929.888 1.367 0 0-.21-.946.208-.964.418-.017 1.166.07 1.462-.403 0 0-1.444-.229-1.427-.842.018-.614.61-.72.61-.72s-.4-.298-1.253-.192c-.853.106-.853-.578-1.897-.631"/>
        <path fill="#FFF" d="M51.874 23.255l-.051-.05.051.05M52.204 23.623l.004.005-.004-.005M50.648 22.175c-.07-.052-.136-.105-.208-.157.072.052.139.105.208.157M52.76 24.374c.014.024.03.047.045.07l-.046-.07M52.495 23.992c.02.026.038.052.056.078-.018-.026-.036-.052-.056-.078"/>
        <path fill="#A50231" d="M48.985 21.157c-.469-.2-.957-.342-1.46-.424-2.502.564-5.859 4.058-6.216 6.976a4.268 4.268 0 0 0-.022.307c2.392.05 6.731-.736 7.698-6.859"/>
        <path fill="#FFF" d="M51.133 22.562l-.206-.17.206.17M49.132 21.221c.13.06.26.118.387.185-.128-.067-.258-.125-.387-.185M51.539 22.923c-.053-.05-.108-.098-.163-.147l.163.147"/>
        <path fill="#09F" d="M42.291 34.176c-.517.353-1.968 1.458-2.193 1.615.297-.32 1.478-1.434 2.011-1.898-.905-1.484-1.535-3.56-.8-6.184 0 0-1.55-1.357-5.456-.95 0 0 3.03 5.024-.876 8.351-3.416 2.908-6.06 2.081-8.74 1.192-1.61 2.45-4.558 7.64-5.07 13.427-.05.574-.077 1.146-.088 1.713 3.66-3.187 10.362-8.293 15.512-8.086 1.85-1.439 3.568-3.185 5.063-5.085a41.174 41.174 0 0 0 1.895-2.589c-.369-.357-.87-.947-1.258-1.506"/>
        <path fill="#FFF" d="M51.404 26.978c-.31.348-.99.242-1.519-.238-.528-.479-.704-1.15-.393-1.498.311-.348.99-.24 1.52.238.527.48.703 1.15.392 1.498"/>
    </g>
</svg>
