<svg xmlns="http://www.w3.org/2000/svg" xmlns:xlink="http://www.w3.org/1999/xlink" width="54" height="48" viewBox="0 0 54 48">
    <defs>
        <path id="a" d="M38.26.062V13.93H.044V.062H38.26z"/>
    </defs>
    <g fill="none" fill-rule="evenodd">
        <g transform="translate(14.866 .046)">
            <mask id="b" fill="#fff">
                <use xlink:href="#a"/>
            </mask>
            <path fill="#fff" d="M36.231 6.965L3.695.118A2.565 2.565 0 0 0 .662 2.08L.044 6.03l37.542 7.9.618-3.95a2.551 2.551 0 0 0-1.973-3.015" mask="url(#b)"/>
        </g>
        <path fill="#fff" d="M41.025 35.578a.465.465 0 0 1-.047.36.464.464 0 0 1-.285.225L8.348 45.09a.477.477 0 0 1-.587-.33L4.472 32.973l33.264-9.18 2.028 7.27 1.261 4.515zm.125-10.495l.8-3.76c.12-.562.681-.926 1.247-.807l3.78.796c.568.12.932.677.813 1.24l-.8 3.76c-.12.563-.682.927-1.247.807l-3.78-.795a1.05 1.05 0 0 1-.813-1.24zm-39.028-.53a.481.481 0 0 1 .332-.585l8.951-2.469 21.12-5.828 2.273-.628a.488.488 0 0 1 .587.33l.267.956.836 2.996-33.263 9.179-1.103-3.951zm35.293-9.74a2.592 2.592 0 0 0-3.179-1.788L28.06 14.73l-14.562-3.064-1.601 7.524L1.89 21.952a2.574 2.574 0 0 0-1.797 3.16l5.638 20.206a2.592 2.592 0 0 0 3.179 1.788l32.345-8.926a2.574 2.574 0 0 0 1.797-3.16l-.967-3.47 3.627.763a2.565 2.565 0 0 0 3.032-1.962l2.296-10.785-13.067-2.75-.56-2.003z"/>
        <path fill="#fff" d="M13.575 36.385a1.057 1.057 0 0 0-1.296-.73L8.5 36.7a1.049 1.049 0 0 0-.732 1.288l1.048 3.756c.155.555.738.883 1.296.729l3.777-1.043c.559-.154.888-.733.733-1.288l-1.048-3.756z"/>
    </g>
</svg>
