<svg xmlns="http://www.w3.org/2000/svg" xmlns:xlink="http://www.w3.org/1999/xlink" width="432" height="11" viewBox="0 0 432 11">
    <defs>
        <path id="a" d="M0 .13v7.93h7.284V.13H0z"/>
        <path id="c" d="M0 10.876h431.913V0H0z"/>
    </defs>
    <g fill="none" fill-rule="evenodd">
        <g transform="translate(0 1.343)">
            <mask id="b" fill="#fff">
                <use xlink:href="#a"/>
            </mask>
            <path fill="#FEFEFE" d="M3.082 6.486c1.424 0 2.383-.962 2.383-2.368v-.023c0-1.405-.96-2.391-2.383-2.391H1.738v4.782h1.344zM0 .13h3.082c2.485 0 4.202 1.71 4.202 3.942v.023c0 2.232-1.717 3.965-4.202 3.965H0V.13z" mask="url(#b)"/>
        </g>
        <path fill="#FEFEFE" d="M28.404 5.46v-.021c0-1.361-.994-2.493-2.395-2.493-1.4 0-2.372 1.11-2.372 2.47v.023c0 1.358.994 2.49 2.395 2.49s2.372-1.109 2.372-2.47m-6.584 0v-.02c0-2.255 1.773-4.103 4.212-4.103 2.44 0 4.19 1.825 4.19 4.08v.023c0 2.254-1.773 4.101-4.213 4.101-2.439 0-4.19-1.824-4.19-4.08M45.11 1.472h1.602l3.705 4.883V1.472h1.717v7.932h-1.478l-3.83-5.043v5.043h-1.717zM92.713 7.829c1.425 0 2.383-.962 2.383-2.368v-.023c0-1.405-.958-2.391-2.383-2.391H91.37v4.782h1.343zm-3.082-6.357h3.082c2.484 0 4.202 1.71 4.202 3.943v.023c0 2.232-1.718 3.965-4.202 3.965h-3.082v-7.93zM118.034 5.46v-.021c0-1.361-.992-2.493-2.394-2.493-1.399 0-2.372 1.11-2.372 2.47v.023c0 1.358.995 2.49 2.394 2.49 1.402 0 2.372-1.109 2.372-2.47m-6.583 0v-.02c0-2.255 1.772-4.103 4.211-4.103 2.441 0 4.191 1.825 4.191 4.08v.023c0 2.254-1.773 4.101-4.213 4.101-2.439 0-4.19-1.824-4.19-4.08M138.242 5.325c.846 0 1.331-.453 1.331-1.121V4.18c0-.747-.519-1.133-1.367-1.133h-1.726v2.278h1.762zm-3.502-3.853h3.614c1.004 0 1.784.283 2.305.805.44.441.676 1.065.676 1.812v.024c0 1.279-.688 2.083-1.694 2.458l1.932 2.833h-2.033l-1.693-2.539h-1.367v2.539h-1.74V1.472zM156.244 1.472h5.962v1.553h-4.234v1.609h3.727v1.552h-3.727V7.85h4.291v1.554h-6.019zM176.606 8.247l1.028-1.235c.71.59 1.456.965 2.36.965.713 0 1.14-.284 1.14-.75v-.023c0-.44-.271-.667-1.591-1.007-1.594-.41-2.62-.85-2.62-2.426V3.75c0-1.438 1.152-2.391 2.767-2.391 1.151 0 2.133.362 2.935 1.008l-.903 1.314c-.701-.487-1.388-.781-2.056-.781-.666 0-1.016.305-1.016.691v.023c0 .52.34.69 1.705 1.042 1.604.419 2.509.997 2.509 2.38v.022c0 1.574-1.2 2.46-2.902 2.46-1.2 0-2.407-.422-3.356-1.27"/>
        <path fill="#ED1A3A" d="M70.974 9.249a3.7 3.7 0 0 1-.892-.107c1.768-.413 3.096-1.533 3.37-2.904.21.287.33.614.33.962 0 1.132-1.257 2.049-2.808 2.049M70.71.899s-3.865 4.698-3.865 6.257c0 1.558 1.73 2.822 3.865 2.822 2.136 0 3.866-1.264 3.866-2.822 0-1.559-3.866-6.258-3.866-6.258"/>
        <path fill="#FEFEFE" d="M213.352 5.97v-.023c0-2.254 1.694-4.102 4.123-4.102 1.49 0 2.382.499 3.115 1.223l-1.105 1.281c-.61-.555-1.232-.894-2.022-.894-1.333 0-2.293 1.11-2.293 2.469v.023c0 1.359.939 2.492 2.293 2.492.904 0 1.456-.364 2.078-.928l1.107 1.12c-.813.874-1.716 1.416-3.242 1.416-2.327 0-4.054-1.8-4.054-4.078M241.383 5.97v-.023c0-1.361-.994-2.492-2.394-2.492-1.401 0-2.372 1.11-2.372 2.469v.023c0 1.359.994 2.492 2.394 2.492 1.402 0 2.372-1.11 2.372-2.47m-6.584 0v-.022c0-2.254 1.774-4.102 4.212-4.102 2.44 0 4.19 1.823 4.19 4.079v.023c0 2.256-1.773 4.1-4.212 4.1s-4.19-1.823-4.19-4.078M258.088 1.98h1.874l2.077 3.355 2.079-3.354h1.876v7.93h-1.73V4.734l-2.225 3.389h-.044l-2.201-3.355v5.143h-1.706zM284.347 5.98c.87 0 1.379-.522 1.379-1.2v-.023c0-.78-.542-1.2-1.413-1.2h-1.344V5.98h1.378zm-3.118-3.999h3.23c1.887 0 3.029 1.121 3.029 2.741v.023c0 1.836-1.424 2.789-3.198 2.789h-1.32V9.91h-1.741v-7.93zM301.989 6.513V1.981h1.74v4.487c0 1.29.642 1.958 1.704 1.958 1.06 0 1.705-.644 1.705-1.902V1.981h1.739v4.474c0 2.403-1.344 3.581-3.466 3.581-2.125 0-3.422-1.188-3.422-3.523M323.99 1.98h1.737v6.346h3.943V9.91h-5.68zM343.776 8.757l1.028-1.236c.71.588 1.457.964 2.36.964.71 0 1.14-.282 1.14-.748v-.024c0-.441-.27-.668-1.592-1.008-1.591-.408-2.62-.85-2.62-2.424v-.022c0-1.44 1.151-2.392 2.766-2.392 1.153 0 2.136.363 2.937 1.008l-.902 1.316c-.701-.489-1.391-.782-2.056-.782-.666 0-1.018.306-1.018.691v.022c0 .52.339.69 1.705 1.042 1.603.42 2.51.998 2.51 2.38v.023c0 1.575-1.199 2.458-2.904 2.458a5.032 5.032 0 0 1-3.354-1.268"/>
        <mask id="d" fill="#fff">
            <use xlink:href="#c"/>
        </mask>
        <path fill="#FEFEFE" d="M364.963 9.912h1.74V1.98h-1.74zM381.338 1.98h1.92l2.065 5.587 2.067-5.586h1.874l-3.195 7.988h-1.537zM425.655 8.757l1.027-1.236c.712.588 1.457.964 2.36.964.713 0 1.143-.282 1.143-.748v-.024c0-.441-.272-.668-1.593-1.008-1.593-.408-2.622-.85-2.622-2.424v-.022c0-1.44 1.154-2.392 2.77-2.392 1.15 0 2.133.363 2.933 1.008l-.902 1.316c-.7-.489-1.388-.782-2.056-.782-.666 0-1.015.306-1.015.691v.022c0 .52.337.69 1.705 1.042 1.603.42 2.508.998 2.508 2.38v.023c0 1.575-1.2 2.458-2.902 2.458a5.033 5.033 0 0 1-3.356-1.268" mask="url(#d)"/>
        <path fill="#ED1A3A" d="M406.62 9.51a3.167 3.167 0 0 1 0-6.333 3.166 3.166 0 0 1 3.157 3.167 3.165 3.165 0 0 1-3.157 3.166m3.665-5.808l.31-.31a.68.68 0 1 0-.963-.965l-.3.3a4.498 4.498 0 0 0-2.031-.86v-.5h.16a.683.683 0 1 0 0-1.368h-1.684a.682.682 0 0 0-.68.684c0 .379.304.685.68.685h.163v.5a4.534 4.534 0 0 0-3.838 4.476c0 2.5 2.027 4.532 4.518 4.532 2.49 0 4.518-2.031 4.518-4.532 0-.986-.319-1.896-.853-2.642" mask="url(#d)"/>
        <path fill="#ED1A3A" d="M408.368 6.362l-1.322-.347V4.24a.544.544 0 1 0-1.089 0v2.199c0 .248.167.464.407.528l1.728.454a.55.55 0 0 0 .665-.39.547.547 0 0 0-.39-.668" mask="url(#d)"/>
    </g>
</svg>
