<svg xmlns="http://www.w3.org/2000/svg" width="26" height="26" viewBox="0 0 26 26">
    <path fill="#FEFEFE" fill-rule="evenodd" d="M12.978 17.306a4.321 4.321 0 1 1 0-8.64c2.383 0 4.32 1.938 4.32 4.32a4.322 4.322 0 0 1-4.32 4.32m12.855-5.782c-.043-.367-.467-.642-.834-.642-1.188 0-2.243-.696-2.683-1.779a2.882 2.882 0 0 1 .725-3.202.72.72 0 0 0 .08-.975c-.61-.77-1.302-1.47-2.054-2.07a.72.72 0 0 0-.985.078c-.77.855-2.158 1.173-3.23.723A2.865 2.865 0 0 1 15.104.846a.725.725 0 0 0-.64-.76A12.572 12.572 0 0 0 11.55.083a.722.722 0 0 0-.641.744 2.889 2.889 0 0 1-1.776 2.76c-1.058.435-2.434.117-3.204-.73a.725.725 0 0 0-.98-.082 12.707 12.707 0 0 0-2.094 2.073.717.717 0 0 0 .075.981 2.88 2.88 0 0 1 .726 3.238c-.448 1.061-1.555 1.748-2.82 1.748a.713.713 0 0 0-.75.634c-.112.98-.116 1.969-.004 2.949.041.363.48.634.848.634 1.13-.026 2.213.672 2.669 1.78a2.882 2.882 0 0 1-.727 3.2.721.721 0 0 0-.074.98c.596.768 1.289 1.466 2.045 2.073a.727.727 0 0 0 .989-.08c.773-.86 2.161-1.171 3.228-.723a2.872 2.872 0 0 1 1.753 2.813.717.717 0 0 0 .638.753 13.462 13.462 0 0 0 2.914.01.723.723 0 0 0 .641-.744 2.887 2.887 0 0 1 1.77-2.764c1.068-.431 2.44-.117 3.209.733.26.278.68.308.976.08a13.077 13.077 0 0 0 2.1-2.07.725.725 0 0 0-.08-.986 2.865 2.865 0 0 1-.722-3.232 2.902 2.902 0 0 1 2.646-1.755l.164.007a.73.73 0 0 0 .756-.645c.116-.97.118-1.962.008-2.938"/>
</svg>
