<svg xmlns="http://www.w3.org/2000/svg" xmlns:xlink="http://www.w3.org/1999/xlink" width="39" height="39" viewBox="0 0 39 39">
    <defs>
        <path id="a" d="M0 38.401V.012h38.016v38.39z"/>
    </defs>
    <g fill="none" fill-rule="evenodd">
        <g transform="translate(.887 .416)">
            <mask id="b" fill="#fff">
                <use xlink:href="#a"/>
            </mask>
            <path fill="#FFF" d="M19.008.012c-5.162 0-5.81.022-7.837.116-2.023.093-3.405.417-4.614.892A9.309 9.309 0 0 0 3.19 3.234a9.42 9.42 0 0 0-2.192 3.4C.528 7.854.207 9.25.114 11.293.022 13.34 0 13.993 0 19.207c0 5.213.022 5.866.114 7.914.093 2.043.414 3.438.884 4.659a9.42 9.42 0 0 0 2.192 3.4 9.309 9.309 0 0 0 3.367 2.214c1.21.474 2.59.799 4.614.892 2.027.093 2.675.115 7.837.115s5.81-.022 7.837-.115c2.023-.093 3.405-.418 4.614-.892a9.309 9.309 0 0 0 3.367-2.214 9.42 9.42 0 0 0 2.192-3.4c.47-1.221.791-2.616.884-4.66.092-2.047.114-2.7.114-7.913s-.022-5.867-.114-7.914c-.093-2.043-.414-3.439-.884-4.66a9.42 9.42 0 0 0-2.192-3.4 9.309 9.309 0 0 0-3.367-2.213C30.25.545 28.87.22 26.845.128 24.818.034 24.17.012 19.008.012m0 3.459c5.075 0 5.677.02 7.68.112 1.854.085 2.86.398 3.53.66.888.349 1.52.765 2.186 1.436.665.672 1.077 1.311 1.422 2.207.26.677.57 1.693.654 3.564.092 2.024.111 2.632.111 7.757s-.02 5.732-.11 7.756c-.085 1.871-.395 2.888-.655 3.564-.345.896-.757 1.535-1.422 2.207a5.884 5.884 0 0 1-2.185 1.436c-.67.263-1.677.575-3.53.66-2.004.093-2.605.113-7.68.113-5.077 0-5.678-.02-7.682-.112-1.853-.086-2.86-.398-3.53-.661a5.884 5.884 0 0 1-2.185-1.436c-.665-.672-1.077-1.311-1.422-2.207-.26-.676-.57-1.693-.654-3.564-.092-2.024-.111-2.631-.111-7.756s.02-5.733.11-7.757c.085-1.871.395-2.887.655-3.564.345-.896.757-1.535 1.422-2.207a5.884 5.884 0 0 1 2.186-1.436c.67-.262 1.676-.575 3.53-.66 2.004-.093 2.605-.112 7.68-.112" mask="url(#b)"/>
        </g>
        <path fill="#FFF" d="M19.895 26.021c-3.499 0-6.336-2.865-6.336-6.398 0-3.534 2.837-6.398 6.336-6.398 3.5 0 6.336 2.864 6.336 6.398 0 3.533-2.836 6.398-6.336 6.398m0-16.255c-5.39 0-9.76 4.413-9.76 9.857 0 5.444 4.37 9.857 9.76 9.857 5.391 0 9.761-4.413 9.761-9.857 0-5.444-4.37-9.857-9.76-9.857M32.323 9.377a2.292 2.292 0 0 1-2.281 2.303 2.292 2.292 0 0 1-2.281-2.303 2.292 2.292 0 0 1 2.281-2.304c1.26 0 2.28 1.032 2.28 2.304"/>
    </g>
</svg>
