<svg xmlns="http://www.w3.org/2000/svg" xmlns:xlink="http://www.w3.org/1999/xlink" width="87" height="73" viewBox="0 0 87 73">
    <defs>
        <path id="a" d="M0 .223v33.36h33.08V.224H0z"/>
    </defs>
    <g fill="none" fill-rule="evenodd">
        <path fill="#FFF" d="M52.272 12.26c4.009 2.51 6.82 6.751 7.336 11.684a12.68 12.68 0 0 0 5.373 1.192c7.02-.003 12.705-5.69 12.702-12.698C77.676 6.285 73.295 1.16 67.48 0l-5.043.003C56.692 1.165 52.36 6.202 52.272 12.261"/>
        <g transform="translate(0 25.816)">
            <mask id="b" fill="#fff">
                <use xlink:href="#a"/>
            </mask>
            <path fill="#FFF" d="M.95 30.16c6.873 2.137 13.001 3.118 18.332 3.424l-.003-3.977c-.007-8.729 5.822-16.12 13.802-18.493A15.644 15.644 0 0 1 28.24.278a17.04 17.04 0 0 0-1.194-.055L16.262.23C7.283.237-.008 7.53 0 16.495l.01 13.174.031.206.909.285z" mask="url(#b)"/>
        </g>
        <path fill="#FFF" d="M8.934 12.49c.006 7.007 5.703 12.69 12.719 12.687a12.668 12.668 0 0 0 6.758-1.967c.62-4.057 2.798-7.61 5.906-10.029.01-.236.038-.47.038-.713C34.35 6.322 29.967 1.195 24.152.034l-5.033.004C13.308 1.209 8.93 6.34 8.934 12.489M70.373 26.004l-10.698.007a15.644 15.644 0 0 1-4.83 10.902c7.983 2.363 13.822 9.743 13.83 18.472l.003 4.057c10.565-.393 16.652-3.386 17.052-3.588l.845-.434h.094l-.01-13.175c-.007-8.965-7.315-16.248-16.286-16.24"/>
        <path fill="#FFF" d="M49.356 39.123l-10.784.007c-8.972.007-16.27 7.307-16.262 16.272l.01 13.175.038.205.909.285c8.56 2.662 16 3.549 22.125 3.542 11.961-.007 18.89-3.417 19.321-3.636l.843-.428h.094l-.01-13.178c-.004-8.962-7.312-16.251-16.284-16.244M43.963 38.261c7.022-.007 12.705-5.69 12.702-12.705-.007-7.012-5.697-12.688-12.723-12.681-7.016.003-12.706 5.69-12.699 12.705.004 7.008 5.704 12.688 12.72 12.681"/>
    </g>
</svg>
