<svg xmlns="http://www.w3.org/2000/svg" width="64" height="92" viewBox="0 0 64 92">
    <path fill="#FFF" fill-rule="evenodd" d="M42.943 49.534h-.047l-.435.22c-.194.1-2.996 1.475-7.872 1.798a31.97 31.97 0 0 1-2.059.07c-1.082 0-2.27-.081-3.506-.21a39.761 39.761 0 0 1-7.869-1.625l-.465-.147-.02-.106V42.74c0-4.617 3.746-8.372 8.354-8.38h.248c-.086-.04-.164-.096-.248-.135-2.21-1.048-3.75-3.287-3.75-5.899 0-2.615 1.54-4.85 3.75-5.899a6.43 6.43 0 0 1 2.783-.647c.999 0 1.937.243 2.782.644 2.213 1.049 3.751 3.287 3.751 5.9 0 2.617-1.538 4.856-3.75 5.904-.084.04-.16.095-.245.131H34.589c4.606.006 8.357 3.764 8.354 8.38v6.795zm14.52-39.836H34.589V2.786A2.786 2.786 0 0 0 31.807 0a2.786 2.786 0 0 0-2.783 2.787v6.912H6.148a6.155 6.155 0 0 0-6.15 6.158v40.731c0 3.404 2.756 6.161 6.15 6.161h22.876v25.939a2.786 2.786 0 0 0 2.783 2.787 2.786 2.786 0 0 0 2.782-2.787V62.748h22.874a6.154 6.154 0 0 0 6.15-6.161v-40.73a6.153 6.153 0 0 0-6.15-6.16z"/>
</svg>
