<svg xmlns="http://www.w3.org/2000/svg" xmlns:xlink="http://www.w3.org/1999/xlink" width="72" height="84" viewBox="0 0 72 84">
    <defs>
        <path id="a" d="M71.598 83.263V.122H.001v83.141h71.597z"/>
    </defs>
    <g fill="none" fill-rule="evenodd">
        <path fill="#FFF" d="M16.494 30.84h10.748a2.39 2.39 0 0 0 2.384-2.395 2.39 2.39 0 0 0-2.384-2.394H16.494a2.39 2.39 0 0 0-2.384 2.394 2.39 2.39 0 0 0 2.384 2.394M27.242 32.293H16.493a2.39 2.39 0 0 0-2.384 2.394 2.39 2.39 0 0 0 2.384 2.395h10.749a2.39 2.39 0 0 0 2.384-2.395 2.39 2.39 0 0 0-2.384-2.394"/>
        <g transform="translate(0 .051)">
            <mask id="b" fill="#fff">
                <use xlink:href="#a"/>
            </mask>
            <path fill="#FFF" d="M14.17 45.154c-2.521 0-4.565-2.052-4.565-4.58V23.911c0-2.532 2.044-4.584 4.564-4.584h15.397c2.52 0 4.561 2.052 4.561 4.584v16.661c0 2.529-2.04 4.581-4.56 4.581H14.168zm-.06-38.58a2.824 2.824 0 0 1 2.817-2.832h9.882a2.824 2.824 0 0 1 2.817 2.832v.328H14.11v-.328zm55.574 29.862c-2.008-3.073-5.16-4.835-8.648-4.835-3.335 0-6.305 1.617-8.142 4.438-.888 1.36-1.425 2.567-1.645 3.689-.308 1.581-.289 3.158-.27 4.548l.016 15.914c.028 4.584.055 8.913-2.288 12.371-1.905 2.81-5.144 4.715-8.463 4.967l-.37.03c-4.02.304-8.172.627-11.237-1.168-2.229-1.306-3.22-3.71-3.66-5.5a16.582 16.582 0 0 1-.4-5.585h6.602c1.13 0 2.044-.917 2.044-2.053v-.826a2.047 2.047 0 0 0-2.044-2.052H29.01v-3.079h8.703c3.327 0 6.021-2.706 6.021-6.044V12.95c0-3.341-2.694-6.048-6.021-6.048h-2.856V6.17c0-3.341-2.694-6.047-6.021-6.047H14.899c-3.326 0-6.021 2.706-6.021 6.047v.733H6.023C2.696 6.902 0 9.61 0 12.95v38.3c0 3.339 2.695 6.045 6.022 6.045h8.702v3.079h-2.172c-1.128 0-2.043.92-2.043 2.052v.826c0 1.136.915 2.053 2.043 2.053h6.57a22.17 22.17 0 0 0 .564 6.895c.978 3.979 3.18 7.148 6.204 8.918 2.929 1.713 6.247 2.145 9.413 2.145 1.736 0 3.428-.128 4.984-.249l.37-.027c4.932-.378 9.74-3.193 12.555-7.35 3.297-4.865 3.262-10.505 3.232-15.48l-.017-15.952c-.016-1.232-.032-2.4.17-3.426.027-.143.174-.695.855-1.74.825-1.268 2.098-1.965 3.583-1.965 1.643 0 3.095.84 4.092 2.364 1.04 1.595 1.03 3.472 1.02 5.847l-.004 18.725a2.73 2.73 0 0 0 2.725 2.737 2.732 2.732 0 0 0 2.725-2.737l.002-18.695c.014-2.766.033-5.902-1.912-8.879z" mask="url(#b)"/>
        </g>
    </g>
</svg>
