<svg xmlns="http://www.w3.org/2000/svg" xmlns:xlink="http://www.w3.org/1999/xlink" width="38" height="45" viewBox="0 0 38 45">
    <defs>
        <path id="a" d="M37.686 45H0V0h37.686z"/>
    </defs>
    <g fill="none" fill-rule="evenodd">
        <g>
            <mask id="b" fill="#fff">
                <use xlink:href="#a"/>
            </mask>
            <path fill="#002987" d="M34.08 11.626c.076-.619.115-1.25.115-1.89C34.195 4.36 29.825 0 24.432 0H8.115a2.1 2.1 0 0 0-2.073 1.749L.03 37.386a2.098 2.098 0 0 0 2.073 2.444H8.07c1.027 0 1.92-.739 2.09-1.748l.028-.166-.832 4.93A1.85 1.85 0 0 0 11.183 45h5.22c.905 0 1.678-.652 1.828-1.541l1.483-8.791a3.153 3.153 0 0 1 3.112-2.625h1.371c7.45 0 13.49-6.023 13.49-13.452a8.524 8.524 0 0 0-3.608-6.965" mask="url(#b)"/>
        </g>
        <path fill="#0085CC" d="M34.08 11.626c-.935 7.575-7.408 13.44-15.255 13.44H14.27a2.283 2.283 0 0 0-2.193 1.647L9.356 42.846A1.85 1.85 0 0 0 11.183 45h5.22c.905 0 1.678-.652 1.828-1.541l1.483-8.791a3.153 3.153 0 0 1 3.112-2.625h1.371c7.45 0 13.49-6.023 13.49-13.452a8.524 8.524 0 0 0-3.608-6.965"/>
        <path fill="#00186A" d="M14.271 25.066h4.554c7.847 0 14.32-5.866 15.254-13.44a8.542 8.542 0 0 0-4.96-1.58H17.233a2.77 2.77 0 0 0-2.733 2.305l-2.423 14.362a2.283 2.283 0 0 1 2.193-1.647"/>
    </g>
</svg>
