<svg xmlns="http://www.w3.org/2000/svg" width="70" height="70" viewBox="0 0 70 70">
    <g fill="#FFF" fill-rule="evenodd" opacity=".75">
        <path d="M35 63.636C19.212 63.636 6.364 50.788 6.364 35 6.364 19.212 19.212 6.364 35 6.364c15.788 0 28.636 12.848 28.636 28.636 0 15.788-12.848 28.636-28.636 28.636M35 0C15.702 0 0 15.702 0 35c0 19.298 15.702 35 35 35 19.298 0 35-15.702 35-35C70 15.702 54.298 0 35 0"/>
        <path d="M26.051 45.34V24.323l20.552 10.643L26.05 45.341zm29.006-13.165l-30.724-15.91a3.185 3.185 0 0 0-4.645 2.826v31.42c0 1.104.572 2.129 1.514 2.711a3.195 3.195 0 0 0 3.102.13l30.724-15.51a3.182 3.182 0 0 0 .029-5.667z"/>
    </g>
</svg>
