<svg xmlns="http://www.w3.org/2000/svg" xmlns:xlink="http://www.w3.org/1999/xlink" width="62" height="27" viewBox="0 0 62 27">
    <defs>
        <path id="a" d="M0 .202h25.22v12.084H0V.202z"/>
        <path id="c" d="M0 26.798h61.897V.235H0z"/>
    </defs>
    <g fill="none" fill-rule="evenodd">
        <g transform="translate(0 .033)">
            <mask id="b" fill="#fff">
                <use xlink:href="#a"/>
            </mask>
            <path fill="#FFF" d="M25.22 2.534c-.052.034-.09.07-.135.086-.488.18-.979.354-1.466.537-.71.265-1.416.538-2.124.805-.532.2-1.066.398-1.6.595-.756.279-1.512.556-2.27.834-.665.245-1.333.486-1.998.734-.734.275-1.47.545-2.198.836-.741.296-1.476.609-2.208.926-.791.343-1.576.7-2.365 1.048-.655.287-1.313.564-1.967.853-.801.353-1.602.707-2.398 1.07-.623.285-1.239.584-1.857.876-.262.124-.519.262-.788.368-.201.08-.418.124-.63.177-.133.034-.17-.068-.205-.162-.044-.12.054-.124.125-.14.117-.025.139-.074.082-.183-.05-.099-.05-.191.109-.201.043-.003.095-.052.118-.093.01-.016-.045-.073-.077-.105-.072-.073-.149-.141-.223-.212-.008-.007-.011-.024-.02-.026-.22-.065-.287-.277-.413-.428-.1-.12-.178-.257-.262-.388-.132-.205-.263-.41-.39-.618-.112-.183-.065-.351.124-.457a1.28 1.28 0 0 1 .178-.087c.328-.119.657-.235.985-.353.401-.145.8-.292 1.202-.433.615-.216 1.235-.417 1.846-.644.775-.288 1.542-.596 2.314-.893.686-.265 1.373-.528 2.062-.787.688-.259 1.378-.511 2.067-.77.601-.225 1.2-.46 1.803-.682.578-.213 1.163-.41 1.741-.622.728-.267 1.453-.543 2.179-.813.798-.298 1.598-.59 2.396-.89.513-.194 1.02-.4 1.533-.595.783-.299 1.568-.591 2.35-.892.368-.14.733-.292 1.099-.44a.619.619 0 0 0 .127-.075c.182-.132.374-.118.496.056.064.092.127.205.133.312.012.217.096.396.213.569.006.009.014.018.016.027.069.307.136.614.206.92.026.115.057.228.09.36" mask="url(#b)"/>
        </g>
        <path fill="#FFF" d="M9.793 3.785c.039-.06.09-.12.112-.184a.426.426 0 0 0 .03-.227c-.061-.237.09-.392.273-.54a.159.159 0 0 1 .07-.036c.251-.038.503-.073.755-.112.12-.018.339-.243.348-.35.01-.13.052-.242.197-.32.112-.06.154-.21.32-.214.01 0 .036-.069.032-.102a2.844 2.844 0 0 0-.053-.293c-.02-.083.01-.143.104-.174.106-.036.16.018.177.094.062.272.119.546.175.82.056.273.104.548.164.82.08.366.167.73.253 1.093.021.092.05.182.073.274.101.432.214.862.3 1.297.187.957.461 1.888.793 2.806.13.36.224.734.324 1.104.146.542.286 1.085.423 1.63.093.37.175.744.265 1.116.106.44.22.877.323 1.318.092.39.168.785.26 1.176.07.289.16.572.233.86.164.64.308 1.286.487 1.923.259.923.527 1.845.817 2.76.219.688.478 1.365.72 2.047.036.102.069.207.12.303.057.108.01.175-.104.218-.315.121-.63.246-.95.353-.14.047-.295.052-.442.082-.224.044-.446.095-.669.137-.045.01-.123.006-.138-.018-.064-.1-.151-.103-.243-.058-.079-.072-.163-.129-.215-.205-.04-.059-.04-.14-.057-.213-.075-.322-.172-.64-.22-.967-.088-.581-.266-1.138-.423-1.7-.218-.783-.429-1.567-.642-2.35-.096-.351-.195-.7-.285-1.052-.082-.322-.152-.646-.231-.968-.069-.28-.142-.558-.215-.835-.12-.457-.238-.914-.362-1.37-.163-.602-.336-1.202-.494-1.806-.116-.44-.17-.899-.332-1.32-.31-.802-.442-1.653-.765-2.448-.198-.488-.4-.975-.585-1.468-.211-.558-.424-1.117-.601-1.686-.078-.247-.065-.52-.101-.781-.02-.149-.057-.295-.086-.442l.065.008M38.688 18.36c-.067-.526-.123-.99-.187-1.452-.053-.38-.12-.756-.176-1.134a67.13 67.13 0 0 1-.158-1.153c-.048-.367-.089-.736-.134-1.104-.053-.42-.106-.839-.162-1.257-.055-.403-.116-.805-.17-1.208-.09-.671-.172-1.344-.266-2.014a43.704 43.704 0 0 0-.242-1.54c-.05-.281-.13-.558-.195-.837-.027-.113-.094-.163-.207-.205a.632.632 0 0 1-.28-.22c-.062-.09.043-.336.155-.39.095-.046.11-.097.088-.19-.054-.227.006-.29.24-.313.294-.03.586-.092.88-.11.21-.014.425.02.637.034.044.003.095.028.13.013.352-.152.464.155.568.343.116.21.127.476.182.719.051.226.103.452.148.68.087.44.171.88.251 1.322.053.293.104.586.143.88.05.38.087.76.128 1.14.051.46.09.923.154 1.382.053.385.142.766.196 1.152.027.187-.008.382.015.57.052.407.124.811.187 1.217.048.305.086.612.143.915.089.475.19.948.286 1.422.035.176.075.352.105.53.006.04-.007.107-.037.13-.27.206-.53.433-.827.594-.174.094-.407.1-.615.106-.332.01-.664-.013-.98-.021M19.553 19.466l-.462.119c-.016.004-.037.01-.048.003-.121-.073-.235-.021-.358 0-.4.067-.541-.046-.59-.458-.04-.346-.062-.694-.106-1.04a56.308 56.308 0 0 0-.227-1.609c-.091-.581-.211-1.158-.294-1.74-.066-.467-.088-.94-.14-1.409-.058-.498-.131-.994-.192-1.491-.041-.342-.061-.687-.113-1.027-.061-.41-.153-.815-.218-1.224-.039-.244-.052-.492-.077-.738-.002-.021.008-.048-.002-.065-.135-.22.051-.383.11-.564.044-.14.367-.263.516-.25.172.013.347-.007.521-.008.067 0 .134.01.2.017.155.017.313.065.463.048.306-.033.346-.02.461.268.097.243.185.491.306.723.165.317.201.661.245 1.002.088.686.154 1.374.238 2.06.08.657.167 1.314.262 1.97.069.48.152.96.238 1.437.031.169.095.332.135.5.037.151.077.304.09.458.038.434.066.868.09 1.302.007.113-.013.227-.02.34-.016.265.061.504.199.727.102.165.091.211-.067.32-.278.192-.813.357-1.16.33M23.47 13.803c.019.056.024.087.039.114.472.854 1.167 1.526 1.854 2.203.51.503 1.034.991 1.47 1.563.437.573.895 1.131 1.348 1.692.064.08.15.143.218.207-.023.139-.055.274-.065.41-.008.102-.03.167-.136.212-.178.075-.226.2-.205.389.006.054-.026.136-.069.167-.15.106-.17.26-.153.413.014.127-.022.212-.117.283-.116.087-.135.181-.083.326.044.124.029.272.023.409-.001.021-.107.067-.142.051a.47.47 0 0 1-.154-.144c-.498-.625-.991-1.254-1.49-1.877-.283-.354-.591-.689-.86-1.052-.341-.462-.642-.954-.983-1.416-.376-.51-.786-.996-1.167-1.502-.287-.382-.552-.782-.83-1.171-.206-.288-.427-.567-.622-.861-.15-.225-.263-.473-.405-.703-.126-.204-.285-.39-.402-.598-.152-.27-.28-.554-.414-.833-.094-.196-.183-.396-.276-.592-.042-.088-.022-.152.049-.217.354-.327.702-.66 1.06-.98.048-.043.151-.054.22-.04.232.05.387.21.532.387.093.113.224.195.326.302.119.124.245.25.334.394.638 1.034 1.329 2.028 2.189 2.898.08.08.155.168.22.26.024.034.013.09.018.136-.046.002-.093.012-.136.004-.23-.043-.343-.24-.501-.378-.165-.144-.33-.287-.502-.42-.04-.031-.11-.023-.188-.036M27.366 6.428c.153.085.17.261.203.423.122.602.243 1.205.353 1.809.082.454.144.911.219 1.367.068.418.143.835.21 1.253.077.493.147.986.224 1.479.043.268.101.533.139.802.03.218.04.438.06.657.039.438.07.877.12 1.314.025.213-.014.413-.137.57-.075.097-.233.148-.363.183-.2.055-.408.089-.614.112a6.22 6.22 0 0 1-.803.05.974.974 0 0 1-.406-.123c-.17-.089-.093-.277-.121-.418-.029-.142.001-.295-.01-.442a91.397 91.397 0 0 0-.136-1.766c-.034-.376-.08-.752-.134-1.126-.049-.343-.116-.684-.17-1.027-.076-.472-.147-.944-.223-1.415-.054-.338-.11-.676-.169-1.012-.077-.44-.153-.879-.238-1.316-.05-.262-.12-.52-.177-.78a2.081 2.081 0 0 1-.045-.322c-.011-.212.163-.318.372-.321.269-.004.556.098.81-.081a.083.083 0 0 1 .058-.013c.232.054.463.117.698.163.078.015.165-.01.28-.02"/>
        <path fill="#FFF" d="M17.127 8.807v-.131c.004-.51.033-.56.476-.815.357-.206.712-.417 1.075-.613.49-.263 1.024-.402 1.565-.518a3.084 3.084 0 0 1 1.165-.034c.645.108 1.297.202 1.838.617.346.266.663.56.69 1.023.01.176-.08.356-.109.536-.068.432-.273.809-.487 1.178-.109.187-.28.339-.42.508-.15.18-.303.357-.445.543-.47.619-1.081 1.085-1.71 1.526-.347.245-.712.47-1.09.664a6.818 6.818 0 0 1-1.055.428 1.172 1.172 0 0 1-.742.011c-.047-.016-.11-.045-.126-.084a4.814 4.814 0 0 1-.188-.522c-.076-.263.197-.524.443-.603.503-.163.936-.444 1.333-.773.503-.416 1.009-.833 1.462-1.299.345-.355.632-.773.904-1.19.17-.259.297-.553.322-.877a.667.667 0 0 0-.169-.525c-.079-.088-.162-.113-.292-.072a5.047 5.047 0 0 0-1.101.493c-.468.285-.927.582-1.313.974-.244.247-.486.495-.732.74-.03.031-.08.064-.12.062a14.55 14.55 0 0 1-.809-.063c-.048-.005-.1-.059-.133-.103a1.23 1.23 0 0 1-.233-.785c.004-.099 0-.197 0-.296M30.892 11.995c-.087 0-.174-.004-.262.001-.321.02-.57-.137-.79-.339-.048-.044-.05-.151-.052-.23-.001-.177.171-.326.093-.523-.007-.017.06-.078.101-.095.307-.12.622-.221.923-.353.21-.092.406-.22.606-.336.275-.159.546-.324.822-.481.5-.286.919-.668 1.294-1.095.186-.211.335-.446.303-.751-.017-.162-.084-.24-.253-.228-.71.055-1.414.142-2.075.43-.616.27-1.212.17-1.798-.09a3.24 3.24 0 0 1-.49-.263c-.158-.107-.192-.282-.232-.463-.093-.41.252-.494.475-.652.626-.442 1.36-.576 2.104-.66.47-.052.943-.117 1.415-.12.255-.002.517.098.767.18.301.1.597.22.885.352.225.103.436.235.65.36.197.113.408.213.58.357.253.212.378.506.377.835 0 .176-.05.351-.061.527-.023.378-.311.606-.498.891-.409.623-1.084.934-1.652 1.371-.25.192-.513.368-.78.534-.149.093-.321.148-.478.228-.117.06-.225.137-.341.2a3.55 3.55 0 0 1-1.633.413"/>
        <path fill="#FFF" d="M32.78 14.83c-.098.028-.196.07-.297.08-.491.057-.983.088-1.462-.07-.066-.02-.146-.088-.164-.15-.223-.79-.436-1.583-.65-2.376-.025-.093-.04-.19-.06-.284-.038-.175-.065-.345-.279-.42-.054-.019-.094-.164-.088-.247.01-.115.075-.224.106-.338a.35.35 0 0 0-.004-.15c-.086-.46-.17-.92-.261-1.378-.085-.418-.18-.833-.268-1.25-.052-.245-.097-.492-.153-.737-.041-.183-.141-.348-.133-.549.004-.107.012-.188.1-.254.605-.453 1.266-.77 2.031-.85.27-.03.265-.038.316.222.187.95.37 1.9.568 2.847.158.76.336 1.516.508 2.273.105.463.198.93.325 1.388.111.4.256.79.4 1.18.061.168.21.292.191.503-.02.224-.119.38-.309.474-.124.061-.27.083-.405.123l-.011-.037M40.46 19.267c-.134.026-.267.065-.402.073a4.07 4.07 0 0 1-.677-.001 4.392 4.392 0 0 1-.72-.153c-.388-.112-.407-.174-.348-.574.044-.306.213-.444.501-.557.537-.21 1.043-.495 1.57-.73.84-.377 1.677-.76 2.555-1.045.341-.11.665-.274 1.002-.398.454-.167.915-.315 1.371-.478.394-.141.785-.29 1.177-.438.292-.11.6-.194.868-.347.306-.174.582-.1.876-.017.156.044.321.061.472.118.191.072.374.169.554.267.02.011.016.135-.01.152-.18.107-.36.22-.556.292-.325.118-.667.194-.994.31-.607.216-1.21.441-1.811.674-.416.161-.822.346-1.235.514-.32.13-.65.24-.968.377-.247.107-.484.24-.722.37-.338.182-.678.36-1.005.561-.148.09-.263.233-.4.343-.19.15-.386.292-.581.435-.109.08-.218.16-.333.23-.05.03-.117.035-.177.05l-.007-.028"/>
        <path fill="#FFF" d="M33.762 9.887c.41.02.827-.005 1.226.068.632.114 1.247.296 1.734.761.662.633.86 1.402.775 2.285-.055.575-.278 1.08-.586 1.546-.179.27-.438.494-.684.714-.407.363-.863.66-1.362.89a6.19 6.19 0 0 1-1.425.438 3.826 3.826 0 0 1-.978.054c-.167-.01-.348-.07-.406-.244-.04-.12-.01-.264-.009-.397.002-.388.317-.517.586-.68.045-.027.141-.03.18 0 .205.153.412.041.59-.018a4.033 4.033 0 0 0 1.776-1.195c.343-.39.617-.825.722-1.339.177-.858-.174-1.63-1.095-1.906-.183-.055-.366.039-.534.136-.195.113-.402.17-.64.143-.143-.017-.296.045-.442.084-.059.015-.106.069-.164.094-.235.105-.324.07-.393-.183-.186-.689.232-1.264.971-1.238.052.002.105 0 .157 0v-.013M38.676 6.656c-.545-.036-1.14-.073-1.734-.118a.561.561 0 0 1-.282-.083c-.079-.058-.174-.17-.167-.25.01-.111.104-.219.169-.324.11-.178.317-.143.48-.19.412-.12.833-.209 1.247-.32.509-.135 1.014-.28 1.522-.421.553-.153 1.105-.314 1.662-.454.36-.09.727-.15 1.092-.218a.28.28 0 0 1 .158.034c.21.104.421.207.625.322.188.106.371.221.548.344.052.036.119.138.102.166a.34.34 0 0 1-.187.141c-.463.127-.93.24-1.395.363-.496.131-.994.256-1.485.403-.499.15-.999.3-1.48.497-.277.114-.55.07-.875.108M38.523 11.531c-.026-.128.036-.192.15-.234.76-.275 1.52-.55 2.276-.832.209-.078.414-.169.614-.266.242-.118.493-.135.749-.08.196.041.395.084.579.161.262.11.516.243.764.382.097.055.192.146.06.273-.027.026-.018.085-.04.12-.045.072-.086.164-.154.2a8.53 8.53 0 0 1-.78.368c-.285.114-.583.197-.87.309-.277.109-.54.262-.823.351-.44.139-.89.24-1.337.354a.228.228 0 0 1-.114-.003c-.238-.068-.479-.13-.712-.213-.147-.053-.26-.14-.267-.33-.008-.187-.061-.373-.095-.56M49.002 22.272h-17.8c-.083 0-.497-.067-.497-.15 0-.083.414-.15.496-.15h17.8c.084 0 .497.067.497.15 0 .083-.413.15-.496.15M34.067 25.885c0-.389-.086-.59-.263-.59h-.107v1.178h.107c.18 0 .263-.212.263-.588zm-.707.881v-1.764h.444c.431 0 .608.38.608.883 0 .508-.174.881-.605.881h-.447z"/>
        <mask id="d" fill="#fff">
            <use xlink:href="#c"/>
        </mask>
        <path fill="#FFF" d="M35.759 26.766h.337v-1.764h-.337zM37.442 25.885c0-.542.174-.913.56-.913.249 0 .388.188.447.416l-.268.098c-.03-.122-.075-.217-.18-.217-.133 0-.213.193-.213.616 0 .421.08.617.214.617.075 0 .126-.03.16-.08v-.32h-.2v-.294h.498v.757a.55.55 0 0 1-.458.233c-.386 0-.56-.373-.56-.913M39.836 26.766h.337v-1.764h-.337zM41.755 26.766v-1.47h-.27V25h.878v.294h-.27v1.471zM44.02 25.375l-.129.772h.257l-.128-.772zm.22 1.391l-.054-.325h-.332l-.054.325h-.348l.372-1.764h.389l.374 1.764h-.348zM45.851 26.766v-1.765h.337v1.472h.445v.293zM49.942 25.375l-.129.772h.257l-.128-.772zm.22 1.391l-.054-.325h-.332l-.054.325h-.348l.372-1.764h.388l.375 1.764h-.348zM51.695 25.885c0-.542.174-.913.56-.913.248 0 .388.188.447.416l-.268.098c-.03-.122-.075-.217-.18-.217-.133 0-.214.193-.214.616 0 .421.08.617.215.617.075 0 .125-.03.16-.08v-.32h-.2v-.294h.497v.757a.55.55 0 0 1-.457.233c-.386 0-.56-.373-.56-.913M54.088 26.766v-1.765h.782v.294h-.444v.426h.425v.294h-.425v.458h.444v.293zM56.923 26.766l-.36-.934v.934h-.338v-1.765h.337l.343.9v-.9h.337v1.765zM58.589 25.885c0-.526.168-.913.559-.913.29 0 .391.228.447.416l-.268.098c-.037-.135-.08-.217-.179-.217-.16 0-.214.256-.214.616s.053.617.214.617c.11 0 .158-.111.182-.257l.27.098c-.05.201-.155.455-.452.455-.39 0-.56-.389-.56-.913M61.145 26.766v-.73l-.42-1.035h.359l.227.712.233-.712h.353l-.417 1.035v.73z" mask="url(#d)"/>
    </g>
</svg>
