<svg xmlns="http://www.w3.org/2000/svg" width="39" height="32" viewBox="0 0 39 32">
    <path fill="#FFF" fill-rule="evenodd" d="M12.213 31.695c14.35 0 22.199-11.89 22.199-22.2 0-.337-.007-.673-.023-1.008a15.873 15.873 0 0 0 3.893-4.04 15.574 15.574 0 0 1-4.48 1.229 7.83 7.83 0 0 0 3.43-4.316 15.636 15.636 0 0 1-4.954 1.894 7.804 7.804 0 0 0-13.296 7.115C12.498 10.043 6.748 6.94 2.9 2.218a7.775 7.775 0 0 0-1.056 3.921 7.796 7.796 0 0 0 3.472 6.494 7.746 7.746 0 0 1-3.534-.976c-.002.033-.002.065-.002.1 0 3.779 2.69 6.933 6.26 7.649a7.825 7.825 0 0 1-3.524.133 7.81 7.81 0 0 0 7.289 5.42 15.656 15.656 0 0 1-9.69 3.34c-.63 0-1.25-.037-1.861-.109a22.086 22.086 0 0 0 11.96 3.505"/>
</svg>
