<svg xmlns="http://www.w3.org/2000/svg" xmlns:xlink="http://www.w3.org/1999/xlink" width="49" height="68" viewBox="0 0 49 68">
    <defs>
        <path id="a" d="M.533.172h28.348v28.511H.533V.172z"/>
    </defs>
    <g fill="none" fill-rule="evenodd">
        <path fill="#ED1A3B" d="M24.136 57.27c-4.004 0-7.25-2.376-7.25-5.31 0-2.929 7.25-11.77 7.25-11.77s7.254 8.841 7.254 11.77c0 2.934-3.246 5.31-7.254 5.31zm24.18-8.807c0-10.067-8.153-18.254-18.156-18.247l-12.026.011C8.13 30.235-.007 38.433 0 48.5l.012 14.798.04.232 1.014.318c9.546 2.993 17.844 3.987 24.674 3.983 13.338-.011 21.064-3.838 21.547-4.088l.94-.482h.1l-.011-14.798z"/>
        <g transform="translate(9.429 .566)">
            <mask id="b" fill="#fff">
                <use xlink:href="#a"/>
            </mask>
            <path fill="#ED1A3B" d="M14.718 28.683c7.833-.007 14.17-6.39 14.163-14.27C28.877 6.538 22.529.162 14.696.17 6.87.175.529 6.561.533 14.442c.008 7.87 6.359 14.249 14.185 14.241" mask="url(#b)"/>
        </g>
    </g>
</svg>
