<svg xmlns="http://www.w3.org/2000/svg" xmlns:xlink="http://www.w3.org/1999/xlink" width="66" height="60" viewBox="0 0 66 60">
    <defs>
        <path id="a" d="M32.79 0h32.788v59.17H.001V0H32.79z"/>
    </defs>
    <g fill="none" fill-rule="evenodd">
        <mask id="b" fill="#fff">
            <use xlink:href="#a"/>
        </mask>
        <path fill="#ED1A3B" d="M43.524 55.583c-1.103 0-2.171-.097-3.22-.23-8.645-1.076-15.248-6.36-15.248-12.733 0-4.262 7.115-15.051 14.03-24.201a235.504 235.504 0 0 1 4.438-5.693c7.9 9.796 18.471 24.7 18.471 29.894 0 7.145-8.286 12.963-18.471 12.963m1.383-46.838c-.684-.825-2.082-.822-2.766 0-.616.753-2.662 3.257-5.216 6.603C30.928 6.973 25.189 0 25.189 0S0 30.564 0 40.697c0 10.137 11.274 18.35 25.189 18.35 3.314 0 6.47-.476 9.364-1.323a28.195 28.195 0 0 0 8.971 1.446c12.163 0 22.054-7.425 22.054-16.55 0-8.552-18.557-31.307-20.671-33.875" mask="url(#b)"/>
    </g>
</svg>
