<svg xmlns="http://www.w3.org/2000/svg" width="60" height="60" viewBox="0 0 60 60">
    <path fill="#ED1A3B" fill-rule="evenodd" d="M31.164 39.087c-2.11 1.058-4.455 1.71-6.975 1.71-8.642 0-15.65-7.007-15.65-15.653 0-8.642 7.008-15.65 15.65-15.65 8.645 0 15.653 7.008 15.653 15.65 0 2.052-.422 3.995-1.136 5.79-1.427 3.567-4.13 6.444-7.542 8.153M57.87 50.072L45.086 37.293a24.062 24.062 0 0 0 3.295-12.15C48.381 11.785 37.551.956 24.19.956 10.829.955 0 11.785 0 25.144c0 13.363 10.83 24.192 24.189 24.192 4.898 0 9.449-1.465 13.257-3.967l12.563 12.563a5.56 5.56 0 0 0 7.86 0 5.56 5.56 0 0 0 0-7.86"/>
</svg>
